<svg width="1304" height="638" viewBox="0 0 1304 638" fill="none" xmlns="http://www.w3.org/2000/svg">
<rect width="1304" height="638" fill="#F2F2F7"/>
<rect x="594.301" y="415.39" width="139.697" height="24.769" rx="4.74556" fill="#28496E"/>
<path d="M590 224.237C590 216.374 596.374 210 604.237 210H724.062C731.925 210 738.299 216.374 738.299 224.237V417.618C738.299 425.481 731.925 431.855 724.062 431.855H604.237C596.374 431.855 590 425.481 590 417.618V224.237Z" fill="#9CA6B7"/>
<path d="M590 224.237C590 216.374 596.374 210 604.237 210H724.062C731.925 210 738.299 216.374 738.299 224.237V417.618C738.299 425.481 731.925 431.855 724.062 431.855H604.237C596.374 431.855 590 425.481 590 417.618V224.237Z" fill="url(#paint0_linear_7252_940)"/>
<g style="mix-blend-mode:soft-light" opacity="0.1">
<path fill-rule="evenodd" clip-rule="evenodd" d="M590.338 357.065C593.281 357.073 596.474 357.076 599.935 357.076C641.275 357.076 657.452 333.725 671.964 312.778C683.767 295.74 694.469 280.293 716.711 280.293C723.548 280.293 730.746 279.12 737.961 277.138V224.237C737.961 216.374 731.587 210 723.724 210H604.574C596.711 210 590.338 216.374 590.338 224.237V357.065Z" fill="white"/>
</g>
<g style="mix-blend-mode:soft-light" opacity="0.1">
<path fill-rule="evenodd" clip-rule="evenodd" d="M590.338 295.638C593.281 295.646 596.474 295.649 599.935 295.649C641.275 295.649 657.452 272.298 671.964 251.351C683.767 234.313 694.469 218.865 716.711 218.865C722.792 218.865 729.16 217.938 735.571 216.338C733.018 212.517 728.665 210 723.724 210H604.574C596.711 210 590.338 216.374 590.338 224.237V295.638Z" fill="white"/>
</g>
<g style="mix-blend-mode:soft-light">
<path d="M716.307 278.062H606.59C605.266 278.062 604.237 276.976 604.237 275.58V258.751C604.237 257.355 605.266 256.269 606.59 256.269H716.307C717.631 256.269 718.66 257.355 718.66 258.751V275.58C718.66 276.976 717.631 278.062 716.307 278.062Z" fill="#C7CEDA"/>
</g>
<path d="M642.991 268.911H613.723C612.841 268.911 612.105 268.135 612.105 267.204C612.105 266.274 612.841 265.498 613.723 265.498H642.991C643.873 265.498 644.609 266.274 644.609 267.204C644.609 268.135 643.873 268.911 642.991 268.911Z" fill="#28496E"/>
<path d="M654.242 269.453C655.541 269.453 656.595 268.342 656.595 266.972C656.595 265.601 655.541 264.49 654.242 264.49C652.942 264.49 651.889 265.601 651.889 266.972C651.889 268.342 652.942 269.453 654.242 269.453Z" fill="#E8EBF0"/>
<path d="M662.699 269.453C663.998 269.453 665.052 268.342 665.052 266.972C665.052 265.601 663.998 264.49 662.699 264.49C661.399 264.49 660.346 265.601 660.346 266.972C660.346 268.342 661.399 269.453 662.699 269.453Z" fill="#C5E2E7"/>
<path d="M679.685 269.453C680.985 269.453 682.039 268.342 682.039 266.972C682.039 265.601 680.985 264.49 679.685 264.49C678.386 264.49 677.332 265.601 677.332 266.972C677.332 268.342 678.386 269.453 679.685 269.453Z" fill="#E8EBF0"/>
<path d="M709.395 269.453C710.694 269.453 711.748 268.342 711.748 266.972C711.748 265.601 710.694 264.49 709.395 264.49C708.095 264.49 707.042 265.601 707.042 266.972C707.042 268.342 708.095 269.453 709.395 269.453Z" fill="#E8EBF0"/>
<g style="mix-blend-mode:soft-light">
<path d="M716.307 308.908H606.59C605.266 308.908 604.237 307.822 604.237 306.426V289.597C604.237 288.201 605.266 287.115 606.59 287.115H716.307C717.631 287.115 718.66 288.201 718.66 289.597V306.426C718.66 307.822 717.631 308.908 716.307 308.908Z" fill="#C7CEDA"/>
</g>
<path d="M642.991 299.756H613.723C612.841 299.756 612.105 298.981 612.105 298.05C612.105 297.12 612.841 296.344 613.723 296.344H642.991C643.873 296.344 644.609 297.12 644.609 298.05C644.609 298.981 643.873 299.756 642.991 299.756Z" fill="#28496E"/>
<path d="M654.242 300.3C655.541 300.3 656.595 299.189 656.595 297.818C656.595 296.448 655.541 295.336 654.242 295.336C652.942 295.336 651.889 296.448 651.889 297.818C651.889 299.189 652.942 300.3 654.242 300.3Z" fill="#E8EBF0"/>
<path d="M662.699 300.3C663.998 300.3 665.052 299.189 665.052 297.818C665.052 296.448 663.998 295.336 662.699 295.336C661.399 295.336 660.346 296.448 660.346 297.818C660.346 299.189 661.399 300.3 662.699 300.3Z" fill="#C5E2E7"/>
<path d="M679.685 300.3C680.985 300.3 682.039 299.189 682.039 297.818C682.039 296.448 680.985 295.336 679.685 295.336C678.386 295.336 677.332 296.448 677.332 297.818C677.332 299.189 678.386 300.3 679.685 300.3Z" fill="#E8EBF0"/>
<path d="M709.395 300.3C710.694 300.3 711.748 299.189 711.748 297.818C711.748 296.448 710.694 295.336 709.395 295.336C708.095 295.336 707.042 296.448 707.042 297.818C707.042 299.189 708.095 300.3 709.395 300.3Z" fill="#E8EBF0"/>
<g style="mix-blend-mode:soft-light">
<path d="M716.307 339.754H606.59C605.266 339.754 604.237 338.669 604.237 337.273V320.443C604.237 319.047 605.266 317.962 606.59 317.962H716.307C717.631 317.962 718.66 319.047 718.66 320.443V337.273C718.66 338.669 717.631 339.754 716.307 339.754Z" fill="#C7CEDA"/>
</g>
<path d="M642.991 330.603H613.723C612.841 330.603 612.105 329.827 612.105 328.896C612.105 327.966 612.841 327.19 613.723 327.19H642.991C643.873 327.19 644.609 327.966 644.609 328.896C644.609 329.827 643.873 330.603 642.991 330.603Z" fill="#28496E"/>
<path d="M654.242 331.146C655.541 331.146 656.595 330.035 656.595 328.664C656.595 327.293 655.541 326.182 654.242 326.182C652.942 326.182 651.889 327.293 651.889 328.664C651.889 330.035 652.942 331.146 654.242 331.146Z" fill="#E8EBF0"/>
<path d="M662.699 331.146C663.998 331.146 665.052 330.035 665.052 328.664C665.052 327.293 663.998 326.182 662.699 326.182C661.399 326.182 660.346 327.293 660.346 328.664C660.346 330.035 661.399 331.146 662.699 331.146Z" fill="#C5E2E7"/>
<path d="M679.685 331.146C680.985 331.146 682.039 330.035 682.039 328.664C682.039 327.293 680.985 326.182 679.685 326.182C678.386 326.182 677.332 327.293 677.332 328.664C677.332 330.035 678.386 331.146 679.685 331.146Z" fill="#E8EBF0"/>
<path d="M709.395 331.146C710.694 331.146 711.748 330.035 711.748 328.664C711.748 327.293 710.694 326.182 709.395 326.182C708.095 326.182 707.042 327.293 707.042 328.664C707.042 330.035 708.095 331.146 709.395 331.146Z" fill="#E8EBF0"/>
<g style="mix-blend-mode:soft-light">
<path d="M716.307 247.216H606.59C605.266 247.216 604.237 246.13 604.237 244.734V227.905C604.237 226.509 605.266 225.423 606.59 225.423H716.307C717.631 225.423 718.66 226.509 718.66 227.905V244.734C718.66 246.13 717.631 247.216 716.307 247.216Z" fill="#C7CEDA"/>
</g>
<path d="M642.991 238.064H613.723C612.841 238.064 612.105 237.289 612.105 236.358C612.105 235.427 612.841 234.652 613.723 234.652H642.991C643.873 234.652 644.609 235.427 644.609 236.358C644.609 237.289 643.873 238.064 642.991 238.064Z" fill="#28496E"/>
<path d="M654.242 238.607C655.541 238.607 656.595 237.496 656.595 236.125C656.595 234.755 655.541 233.644 654.242 233.644C652.942 233.644 651.889 234.755 651.889 236.125C651.889 237.496 652.942 238.607 654.242 238.607Z" fill="#E8EBF0"/>
<path d="M662.699 238.607C663.998 238.607 665.052 237.496 665.052 236.125C665.052 234.755 663.998 233.644 662.699 233.644C661.399 233.644 660.346 234.755 660.346 236.125C660.346 237.496 661.399 238.607 662.699 238.607Z" fill="#C5E2E7"/>
<path d="M679.685 238.607C680.985 238.607 682.039 237.496 682.039 236.125C682.039 234.755 680.985 233.644 679.685 233.644C678.386 233.644 677.332 234.755 677.332 236.125C677.332 237.496 678.386 238.607 679.685 238.607Z" fill="#E8EBF0"/>
<path d="M709.395 238.607C710.694 238.607 711.748 237.496 711.748 236.125C711.748 234.755 710.694 233.644 709.395 233.644C708.095 233.644 707.042 234.755 707.042 236.125C707.042 237.496 708.095 238.607 709.395 238.607Z" fill="#E8EBF0"/>
<g style="mix-blend-mode:soft-light">
<path d="M716.307 370.6H606.59C605.266 370.6 604.237 369.514 604.237 368.118V351.289C604.237 349.893 605.266 348.807 606.59 348.807H716.307C717.631 348.807 718.66 349.893 718.66 351.289V368.118C718.66 369.514 717.631 370.6 716.307 370.6Z" fill="#C7CEDA"/>
</g>
<path d="M642.991 361.448H613.723C612.841 361.448 612.105 360.673 612.105 359.742C612.105 358.812 612.841 358.036 613.723 358.036H642.991C643.873 358.036 644.609 358.812 644.609 359.742C644.609 360.673 643.873 361.448 642.991 361.448Z" fill="#28496E"/>
<path d="M654.242 361.992C655.541 361.992 656.595 360.881 656.595 359.51C656.595 358.139 655.541 357.028 654.242 357.028C652.942 357.028 651.889 358.139 651.889 359.51C651.889 360.881 652.942 361.992 654.242 361.992Z" fill="#E8EBF0"/>
<path d="M662.699 361.992C663.998 361.992 665.052 360.881 665.052 359.51C665.052 358.139 663.998 357.028 662.699 357.028C661.399 357.028 660.346 358.139 660.346 359.51C660.346 360.881 661.399 361.992 662.699 361.992Z" fill="#C5E2E7"/>
<path d="M679.685 361.992C680.985 361.992 682.039 360.881 682.039 359.51C682.039 358.139 680.985 357.028 679.685 357.028C678.386 357.028 677.332 358.139 677.332 359.51C677.332 360.881 678.386 361.992 679.685 361.992Z" fill="#E8EBF0"/>
<path d="M709.395 361.992C710.694 361.992 711.748 360.881 711.748 359.51C711.748 358.139 710.694 357.028 709.395 357.028C708.095 357.028 707.042 358.139 707.042 359.51C707.042 360.881 708.095 361.992 709.395 361.992Z" fill="#E8EBF0"/>
<g style="mix-blend-mode:soft-light">
<path d="M716.307 401.447H606.59C605.266 401.447 604.237 400.361 604.237 398.965V382.136C604.237 380.74 605.266 379.654 606.59 379.654H716.307C717.631 379.654 718.66 380.74 718.66 382.136V398.965C718.66 400.361 717.631 401.447 716.307 401.447Z" fill="#C7CEDA"/>
</g>
<path d="M642.991 392.295H613.723C612.841 392.295 612.105 391.519 612.105 390.589C612.105 389.658 612.841 388.883 613.723 388.883H642.991C643.873 388.883 644.609 389.658 644.609 390.589C644.609 391.519 643.873 392.295 642.991 392.295Z" fill="#28496E"/>
<path d="M654.242 392.838C655.541 392.838 656.595 391.727 656.595 390.357C656.595 388.986 655.541 387.875 654.242 387.875C652.942 387.875 651.889 388.986 651.889 390.357C651.889 391.727 652.942 392.838 654.242 392.838Z" fill="#E8EBF0"/>
<path d="M662.699 392.838C663.998 392.838 665.052 391.727 665.052 390.357C665.052 388.986 663.998 387.875 662.699 387.875C661.399 387.875 660.346 388.986 660.346 390.357C660.346 391.727 661.399 392.838 662.699 392.838Z" fill="#C5E2E7"/>
<path d="M679.685 392.838C680.985 392.838 682.039 391.727 682.039 390.357C682.039 388.986 680.985 387.875 679.685 387.875C678.386 387.875 677.332 388.986 677.332 390.357C677.332 391.727 678.386 392.838 679.685 392.838Z" fill="#E8EBF0"/>
<path d="M709.395 392.838C710.694 392.838 711.748 391.727 711.748 390.357C711.748 388.986 710.694 387.875 709.395 387.875C708.095 387.875 707.042 388.986 707.042 390.357C707.042 391.727 708.095 392.838 709.395 392.838Z" fill="#E8EBF0"/>
<path fill-rule="evenodd" clip-rule="evenodd" d="M590 413.904H717.975C725.183 413.904 731.026 408.061 731.026 400.854V211.816C735.366 214.255 738.299 218.904 738.299 224.237V417.618C738.299 425.481 731.925 431.855 724.062 431.855H604.237C596.374 431.855 590 425.481 590 417.618V413.904Z" fill="#28496E" fill-opacity="0.31"/>
<rect x="559" y="483" width="210" height="31" rx="15.5" fill="#8F9DB4"/>
<path d="M588.08 497.518V493.057H590.475C591.991 493.057 592.914 493.914 592.914 495.298C592.914 496.639 591.991 497.518 590.475 497.518H588.08ZM590.848 500.133C593.925 500.133 595.969 498.111 595.969 495.276C595.969 492.463 593.925 490.419 590.848 490.419H585.025V506H588.058V500.133H590.848ZM606.461 506H609.845L606.505 499.627C608.549 499.034 609.824 497.386 609.824 495.21C609.824 492.507 607.89 490.419 604.857 490.419H598.77V506H601.824V500.001H603.407L606.461 506ZM601.824 497.386V493.057H604.286C605.824 493.057 606.725 493.914 606.725 495.232C606.725 496.507 605.824 497.386 604.286 497.386H601.824ZM615.271 498.199C615.271 494.683 617.732 493.013 620.127 493.013C622.545 493.013 625.006 494.683 625.006 498.199C625.006 501.715 622.545 503.385 620.127 503.385C617.732 503.385 615.271 501.715 615.271 498.199ZM612.128 498.221C612.128 503.231 615.908 506.33 620.127 506.33C624.369 506.33 628.148 503.231 628.148 498.221C628.148 493.188 624.369 490.09 620.127 490.09C615.908 490.09 612.128 493.188 612.128 498.221ZM642.857 490.419H639.319L635.913 495.803L632.573 490.419H628.925L634.023 498.199L628.903 506H632.463L635.847 500.616L639.21 506H642.879L637.759 498.221L642.857 490.419ZM649.195 499.451V506H652.228V499.451L657.721 490.419H654.315L650.821 496.595L647.327 490.419H643.767L649.195 499.451ZM675.616 494.133C675.265 492.375 673.815 490.09 670.035 490.09C667.09 490.09 664.607 492.199 664.607 494.968C664.607 497.32 666.211 498.924 668.694 499.429L670.87 499.869C672.078 500.111 672.76 500.814 672.76 501.715C672.76 502.814 671.859 503.627 670.233 503.627C668.035 503.627 666.958 502.242 666.826 500.704L664.014 501.451C664.255 503.671 666.079 506.33 670.211 506.33C673.836 506.33 675.836 503.912 675.836 501.517C675.836 499.319 674.32 497.474 671.485 496.924L669.31 496.507C668.167 496.287 667.617 495.606 667.617 494.749C667.617 493.716 668.584 492.771 670.057 492.771C672.035 492.771 672.738 494.111 672.892 494.968L675.616 494.133ZM688.743 506V503.143H682.019V499.539H688.106V496.836H682.019V493.276H688.743V490.419H678.986V506H688.743ZM699.843 506H703.227L699.887 499.627C701.93 499.034 703.205 497.386 703.205 495.21C703.205 492.507 701.271 490.419 698.239 490.419H692.151V506H695.206V500.001H696.788L699.843 506ZM695.206 497.386V493.057H697.667C699.205 493.057 700.106 493.914 700.106 495.232C700.106 496.507 699.205 497.386 697.667 497.386H695.206ZM711.827 502L707.761 490.419H704.443L710.2 506H713.321L719.1 490.419H715.892L711.827 502ZM731.373 506V503.143H724.648V499.539H730.735V496.836H724.648V493.276H731.373V490.419H721.616V506H731.373ZM742.472 506H745.857L742.516 499.627C744.56 499.034 745.835 497.386 745.835 495.21C745.835 492.507 743.901 490.419 740.868 490.419H734.781V506H737.836V500.001H739.418L742.472 506ZM737.836 497.386V493.057H740.297C741.835 493.057 742.736 493.914 742.736 495.232C742.736 496.507 741.835 497.386 740.297 497.386H737.836Z" fill="#F2F2F7"/>
<path d="M588.08 497.518H587.684V497.913H588.08V497.518ZM588.08 493.057V492.661H587.684V493.057H588.08ZM585.025 490.419V490.024H584.63V490.419H585.025ZM585.025 506H584.63V506.395H585.025V506ZM588.058 506V506.395H588.453V506H588.058ZM588.058 500.133V499.737H587.662V500.133H588.058ZM588.475 497.518V493.057H587.684V497.518H588.475ZM588.08 493.452H590.475V492.661H588.08V493.452ZM590.475 493.452C591.16 493.452 591.665 493.645 591.995 493.949C592.321 494.249 592.519 494.697 592.519 495.298H593.31C593.31 494.514 593.046 493.841 592.531 493.367C592.02 492.897 591.306 492.661 590.475 492.661V493.452ZM592.519 495.298C592.519 495.874 592.323 496.317 591.995 496.62C591.664 496.925 591.158 497.122 590.475 497.122V497.913C591.308 497.913 592.022 497.67 592.531 497.201C593.044 496.729 593.31 496.063 593.31 495.298H592.519ZM590.475 497.122H588.08V497.913H590.475V497.122ZM590.848 500.528C592.475 500.528 593.857 499.992 594.836 499.053C595.816 498.112 596.364 496.792 596.364 495.276H595.573C595.573 496.595 595.1 497.703 594.288 498.482C593.476 499.262 592.299 499.737 590.848 499.737V500.528ZM596.364 495.276C596.364 493.771 595.815 492.451 594.837 491.508C593.859 490.566 592.476 490.024 590.848 490.024V490.815C592.298 490.815 593.475 491.295 594.288 492.078C595.1 492.86 595.573 493.969 595.573 495.276H596.364ZM590.848 490.024H585.025V490.815H590.848V490.024ZM584.63 490.419V506H585.42V490.419H584.63ZM585.025 506.395H588.058V505.605H585.025V506.395ZM588.453 506V500.133H587.662V506H588.453ZM588.058 500.528H590.848V499.737H588.058V500.528ZM606.461 506L606.109 506.179L606.219 506.395H606.461V506ZM609.845 506V506.395H610.499L610.196 505.816L609.845 506ZM606.505 499.627L606.395 499.247L605.93 499.382L606.155 499.811L606.505 499.627ZM598.77 490.419V490.024H598.374V490.419H598.77ZM598.77 506H598.374V506.395H598.77V506ZM601.824 506V506.395H602.22V506H601.824ZM601.824 500.001V499.605H601.429V500.001H601.824ZM603.407 500.001L603.759 499.821L603.649 499.605H603.407V500.001ZM601.824 497.386H601.429V497.781H601.824V497.386ZM601.824 493.057V492.661H601.429V493.057H601.824ZM606.461 506.395H609.845V505.605H606.461V506.395ZM610.196 505.816L606.855 499.444L606.155 499.811L609.495 506.184L610.196 505.816ZM606.615 500.007C608.826 499.365 610.219 497.564 610.219 495.21H609.428C609.428 497.207 608.272 498.702 606.395 499.247L606.615 500.007ZM610.219 495.21C610.219 493.763 609.7 492.461 608.757 491.521C607.813 490.58 606.467 490.024 604.857 490.024V490.815C606.28 490.815 607.417 491.303 608.198 492.081C608.98 492.861 609.428 493.955 609.428 495.21H610.219ZM604.857 490.024H598.77V490.815H604.857V490.024ZM598.374 490.419V506H599.165V490.419H598.374ZM598.77 506.395H601.824V505.605H598.77V506.395ZM602.22 506V500.001H601.429V506H602.22ZM601.824 500.396H603.407V499.605H601.824V500.396ZM603.054 500.18L606.109 506.179L606.814 505.821L603.759 499.821L603.054 500.18ZM602.22 497.386V493.057H601.429V497.386H602.22ZM601.824 493.452H604.286V492.661H601.824V493.452ZM604.286 493.452C604.983 493.452 605.489 493.646 605.816 493.943C606.139 494.236 606.33 494.667 606.33 495.232H607.12C607.12 494.479 606.86 493.822 606.348 493.357C605.84 492.896 605.126 492.661 604.286 492.661V493.452ZM606.33 495.232C606.33 495.772 606.142 496.199 605.816 496.494C605.488 496.792 604.981 496.99 604.286 496.99V497.781C605.129 497.781 605.842 497.539 606.348 497.08C606.858 496.617 607.12 495.967 607.12 495.232H606.33ZM604.286 496.99H601.824V497.781H604.286V496.99ZM615.666 498.199C615.666 496.539 616.244 495.351 617.071 494.576C617.905 493.795 619.019 493.408 620.127 493.408V492.617C618.841 492.617 617.526 493.065 616.53 493.999C615.528 494.937 614.875 496.342 614.875 498.199H615.666ZM620.127 493.408C621.248 493.408 622.367 493.795 623.203 494.576C624.033 495.351 624.61 496.539 624.61 498.199H625.401C625.401 496.342 624.748 494.937 623.743 493.998C622.744 493.065 621.424 492.617 620.127 492.617V493.408ZM624.61 498.199C624.61 499.858 624.033 501.046 623.203 501.821C622.367 502.602 621.248 502.989 620.127 502.989V503.78C621.424 503.78 622.744 503.333 623.743 502.399C624.748 501.46 625.401 500.055 625.401 498.199H624.61ZM620.127 502.989C619.019 502.989 617.905 502.603 617.071 501.822C616.244 501.047 615.666 499.858 615.666 498.199H614.875C614.875 500.055 615.528 501.46 616.53 502.399C617.526 503.332 618.841 503.78 620.127 503.78V502.989ZM611.733 498.221C611.733 503.468 615.708 506.725 620.127 506.725V505.934C616.108 505.934 612.524 502.994 612.524 498.221H611.733ZM620.127 506.725C624.568 506.725 628.544 503.468 628.544 498.221H627.753C627.753 502.994 624.17 505.934 620.127 505.934V506.725ZM628.544 498.221C628.544 492.952 624.568 489.694 620.127 489.694V490.485C624.169 490.485 627.753 493.425 627.753 498.221H628.544ZM620.127 489.694C615.708 489.694 611.733 492.952 611.733 498.221H612.524C612.524 493.424 616.108 490.485 620.127 490.485V489.694ZM642.857 490.419L643.188 490.636L643.588 490.024H642.857V490.419ZM639.319 490.419V490.024H639.102L638.985 490.208L639.319 490.419ZM635.913 495.803L635.577 496.012L635.91 496.548L636.247 496.015L635.913 495.803ZM632.573 490.419L632.909 490.211L632.793 490.024H632.573V490.419ZM628.925 490.419V490.024H628.193L628.594 490.636L628.925 490.419ZM634.023 498.199L634.354 498.416L634.496 498.199L634.354 497.982L634.023 498.199ZM628.903 506L628.572 505.783L628.171 506.395H628.903V506ZM632.463 506V506.395H632.682L632.798 506.21L632.463 506ZM635.847 500.616L636.183 500.407L635.848 499.871L635.513 500.406L635.847 500.616ZM639.21 506L638.874 506.209L638.99 506.395H639.21V506ZM642.879 506V506.395H643.613L643.21 505.783L642.879 506ZM637.759 498.221L637.428 498.004L637.286 498.221L637.429 498.438L637.759 498.221ZM642.857 490.024H639.319V490.815H642.857V490.024ZM638.985 490.208L635.579 495.592L636.247 496.015L639.654 490.631L638.985 490.208ZM636.249 495.595L632.909 490.211L632.237 490.628L635.577 496.012L636.249 495.595ZM632.573 490.024H628.925V490.815H632.573V490.024ZM628.594 490.636L633.693 498.416L634.354 497.982L629.256 490.203L628.594 490.636ZM633.693 497.982L628.572 505.783L629.234 506.217L634.354 498.416L633.693 497.982ZM628.903 506.395H632.463V505.605H628.903V506.395ZM632.798 506.21L636.182 500.826L635.513 500.406L632.128 505.79L632.798 506.21ZM635.512 500.826L638.874 506.209L639.545 505.791L636.183 500.407L635.512 500.826ZM639.21 506.395H642.879V505.605H639.21V506.395ZM643.21 505.783L638.089 498.003L637.429 498.438L642.549 506.217L643.21 505.783ZM638.09 498.437L643.188 490.636L642.526 490.203L637.428 498.004L638.09 498.437ZM649.195 499.451H649.59V499.342L649.534 499.248L649.195 499.451ZM649.195 506H648.799V506.395H649.195V506ZM652.228 506V506.395H652.623V506H652.228ZM652.228 499.451L651.89 499.246L651.832 499.341V499.451H652.228ZM657.721 490.419L658.059 490.625L658.425 490.024H657.721V490.419ZM654.315 490.419V490.024H654.085L653.971 490.225L654.315 490.419ZM650.821 496.595L650.477 496.789L650.821 497.398L651.165 496.789L650.821 496.595ZM647.327 490.419L647.671 490.225L647.558 490.024H647.327V490.419ZM643.767 490.419V490.024H643.068L643.428 490.623L643.767 490.419ZM648.799 499.451V506H649.59V499.451H648.799ZM649.195 506.395H652.228V505.605H649.195V506.395ZM652.623 506V499.451H651.832V506H652.623ZM652.565 499.657L658.059 490.625L657.383 490.214L651.89 499.246L652.565 499.657ZM657.721 490.024H654.315V490.815H657.721V490.024ZM653.971 490.225L650.477 496.4L651.165 496.789L654.659 490.614L653.971 490.225ZM651.165 496.4L647.671 490.225L646.983 490.614L650.477 496.789L651.165 496.4ZM647.327 490.024H643.767V490.815H647.327V490.024ZM643.428 490.623L648.856 499.655L649.534 499.248L644.106 490.216L643.428 490.623ZM675.616 494.133L675.732 494.511L676.074 494.407L676.004 494.056L675.616 494.133ZM668.694 499.429L668.615 499.817L668.616 499.817L668.694 499.429ZM670.87 499.869L670.792 500.256L670.792 500.257L670.87 499.869ZM666.826 500.704L667.22 500.67L667.18 500.201L666.725 500.322L666.826 500.704ZM664.014 501.451L663.912 501.069L663.584 501.156L663.62 501.494L664.014 501.451ZM671.485 496.924L671.56 496.536L671.56 496.536L671.485 496.924ZM669.31 496.507L669.235 496.895L669.235 496.895L669.31 496.507ZM672.892 494.968L672.502 495.038L672.581 495.477L673.007 495.346L672.892 494.968ZM676.004 494.056C675.815 493.111 675.33 492.017 674.376 491.158C673.415 490.294 672.01 489.694 670.035 489.694V490.485C671.839 490.485 673.049 491.028 673.847 491.746C674.65 492.47 675.066 493.398 675.229 494.211L676.004 494.056ZM670.035 489.694C666.919 489.694 664.211 491.936 664.211 494.968H665.002C665.002 492.463 667.261 490.485 670.035 490.485V489.694ZM664.211 494.968C664.211 496.24 664.648 497.327 665.431 498.162C666.21 498.992 667.312 499.552 668.615 499.817L668.773 499.042C667.594 498.802 666.652 498.307 666.008 497.62C665.368 496.939 665.002 496.048 665.002 494.968H664.211ZM668.616 499.817L670.792 500.256L670.948 499.481L668.773 499.042L668.616 499.817ZM670.792 500.257C671.889 500.476 672.364 501.068 672.364 501.715H673.155C673.155 500.56 672.268 499.745 670.947 499.481L670.792 500.257ZM672.364 501.715C672.364 502.147 672.192 502.509 671.86 502.773C671.52 503.043 670.984 503.231 670.233 503.231V504.022C671.108 504.022 671.835 503.803 672.352 503.392C672.877 502.975 673.155 502.382 673.155 501.715H672.364ZM670.233 503.231C669.221 503.231 668.505 502.915 668.029 502.457C667.548 501.995 667.279 501.36 667.22 500.67L666.432 500.738C666.505 501.587 666.841 502.412 667.481 503.027C668.125 503.646 669.047 504.022 670.233 504.022V503.231ZM666.725 500.322L663.912 501.069L664.115 501.833L666.928 501.086L666.725 500.322ZM663.62 501.494C663.751 502.689 664.305 503.998 665.383 505.011C666.466 506.029 668.055 506.725 670.211 506.725V505.934C668.235 505.934 666.846 505.301 665.924 504.435C664.996 503.563 664.518 502.433 664.407 501.408L663.62 501.494ZM670.211 506.725C674.035 506.725 676.232 504.15 676.232 501.517H675.441C675.441 503.674 673.638 505.934 670.211 505.934V506.725ZM676.232 501.517C676.232 499.097 674.547 497.115 671.56 496.536L671.41 497.312C674.093 497.832 675.441 499.542 675.441 501.517H676.232ZM671.56 496.536L669.384 496.118L669.235 496.895L671.411 497.313L671.56 496.536ZM669.384 496.118C668.875 496.02 668.536 495.827 668.326 495.599C668.12 495.374 668.013 495.088 668.013 494.749H667.222C667.222 495.266 667.39 495.749 667.744 496.134C668.095 496.516 668.602 496.773 669.235 496.895L669.384 496.118ZM668.013 494.749C668.013 493.989 668.744 493.166 670.057 493.166V492.375C668.425 492.375 667.222 493.443 667.222 494.749H668.013ZM670.057 493.166C670.947 493.166 671.515 493.464 671.879 493.828C672.251 494.201 672.436 494.67 672.502 495.038L673.281 494.899C673.193 494.409 672.949 493.78 672.438 493.269C671.917 492.748 671.144 492.375 670.057 492.375V493.166ZM673.007 495.346L675.732 494.511L675.501 493.755L672.776 494.59L673.007 495.346ZM688.743 506V506.395H689.138V506H688.743ZM688.743 503.143H689.138V502.748H688.743V503.143ZM682.019 503.143H681.623V503.539H682.019V503.143ZM682.019 499.539V499.144H681.623V499.539H682.019ZM688.106 499.539V499.935H688.501V499.539H688.106ZM688.106 496.836H688.501V496.441H688.106V496.836ZM682.019 496.836H681.623V497.232H682.019V496.836ZM682.019 493.276V492.881H681.623V493.276H682.019ZM688.743 493.276V493.672H689.138V493.276H688.743ZM688.743 490.419H689.138V490.024H688.743V490.419ZM678.986 490.419V490.024H678.59V490.419H678.986ZM678.986 506H678.59V506.395H678.986V506ZM689.138 506V503.143H688.348V506H689.138ZM688.743 502.748H682.019V503.539H688.743V502.748ZM682.414 503.143V499.539H681.623V503.143H682.414ZM682.019 499.935H688.106V499.144H682.019V499.935ZM688.501 499.539V496.836H687.71V499.539H688.501ZM688.106 496.441H682.019V497.232H688.106V496.441ZM682.414 496.836V493.276H681.623V496.836H682.414ZM682.019 493.672H688.743V492.881H682.019V493.672ZM689.138 493.276V490.419H688.348V493.276H689.138ZM688.743 490.024H678.986V490.815H688.743V490.024ZM678.59 490.419V506H679.381V490.419H678.59ZM678.986 506.395H688.743V505.605H678.986V506.395ZM699.843 506L699.49 506.179L699.6 506.395H699.843V506ZM703.227 506V506.395H703.881L703.577 505.816L703.227 506ZM699.887 499.627L699.776 499.247L699.312 499.382L699.536 499.811L699.887 499.627ZM692.151 490.419V490.024H691.756V490.419H692.151ZM692.151 506H691.756V506.395H692.151V506ZM695.206 506V506.395H695.601V506H695.206ZM695.206 500.001V499.605H694.811V500.001H695.206ZM696.788 500.001L697.141 499.821L697.031 499.605H696.788V500.001ZM695.206 497.386H694.811V497.781H695.206V497.386ZM695.206 493.057V492.661H694.811V493.057H695.206ZM699.843 506.395H703.227V505.605H699.843V506.395ZM703.577 505.816L700.237 499.444L699.536 499.811L702.877 506.184L703.577 505.816ZM699.997 500.007C702.207 499.365 703.6 497.564 703.6 495.21H702.81C702.81 497.207 701.654 498.702 699.776 499.247L699.997 500.007ZM703.6 495.21C703.6 493.763 703.081 492.461 702.138 491.521C701.194 490.58 699.849 490.024 698.239 490.024V490.815C699.661 490.815 700.799 491.303 701.58 492.081C702.362 492.861 702.81 493.955 702.81 495.21H703.6ZM698.239 490.024H692.151V490.815H698.239V490.024ZM691.756 490.419V506H692.547V490.419H691.756ZM692.151 506.395H695.206V505.605H692.151V506.395ZM695.601 506V500.001H694.811V506H695.601ZM695.206 500.396H696.788V499.605H695.206V500.396ZM696.436 500.18L699.49 506.179L700.195 505.821L697.141 499.821L696.436 500.18ZM695.601 497.386V493.057H694.811V497.386H695.601ZM695.206 493.452H697.667V492.661H695.206V493.452ZM697.667 493.452C698.365 493.452 698.871 493.646 699.198 493.943C699.521 494.236 699.711 494.667 699.711 495.232H700.502C700.502 494.479 700.242 493.822 699.73 493.357C699.222 492.896 698.508 492.661 697.667 492.661V493.452ZM699.711 495.232C699.711 495.772 699.523 496.199 699.198 496.494C698.869 496.792 698.362 496.99 697.667 496.99V497.781C698.51 497.781 699.223 497.539 699.73 497.08C700.239 496.617 700.502 495.967 700.502 495.232H699.711ZM697.667 496.99H695.206V497.781H697.667V496.99ZM711.827 502L711.453 502.131L711.827 503.194L712.2 502.131L711.827 502ZM707.761 490.419L708.134 490.288L708.041 490.024H707.761V490.419ZM704.443 490.419V490.024H703.875L704.072 490.557L704.443 490.419ZM710.2 506L709.829 506.137L709.925 506.395H710.2V506ZM713.321 506V506.395H713.596L713.692 506.138L713.321 506ZM719.1 490.419L719.471 490.557L719.669 490.024H719.1V490.419ZM715.892 490.419V490.024H715.612L715.519 490.288L715.892 490.419ZM712.2 501.87L708.134 490.288L707.388 490.55L711.453 502.131L712.2 501.87ZM707.761 490.024H704.443V490.815H707.761V490.024ZM704.072 490.557L709.829 506.137L710.571 505.863L704.814 490.282L704.072 490.557ZM710.2 506.395H713.321V505.605H710.2V506.395ZM713.692 506.138L719.471 490.557L718.73 490.282L712.95 505.862L713.692 506.138ZM719.1 490.024H715.892V490.815H719.1V490.024ZM715.519 490.288L711.453 501.87L712.2 502.131L716.265 490.55L715.519 490.288ZM731.373 506V506.395H731.768V506H731.373ZM731.373 503.143H731.768V502.748H731.373V503.143ZM724.648 503.143H724.253V503.539H724.648V503.143ZM724.648 499.539V499.144H724.253V499.539H724.648ZM730.735 499.539V499.935H731.131V499.539H730.735ZM730.735 496.836H731.131V496.441H730.735V496.836ZM724.648 496.836H724.253V497.232H724.648V496.836ZM724.648 493.276V492.881H724.253V493.276H724.648ZM731.373 493.276V493.672H731.768V493.276H731.373ZM731.373 490.419H731.768V490.024H731.373V490.419ZM721.616 490.419V490.024H721.22V490.419H721.616ZM721.616 506H721.22V506.395H721.616V506ZM731.768 506V503.143H730.977V506H731.768ZM731.373 502.748H724.648V503.539H731.373V502.748ZM725.044 503.143V499.539H724.253V503.143H725.044ZM724.648 499.935H730.735V499.144H724.648V499.935ZM731.131 499.539V496.836H730.34V499.539H731.131ZM730.735 496.441H724.648V497.232H730.735V496.441ZM725.044 496.836V493.276H724.253V496.836H725.044ZM724.648 493.672H731.373V492.881H724.648V493.672ZM731.768 493.276V490.419H730.977V493.276H731.768ZM731.373 490.024H721.616V490.815H731.373V490.024ZM721.22 490.419V506H722.011V490.419H721.22ZM721.616 506.395H731.373V505.605H721.616V506.395ZM742.472 506L742.12 506.179L742.23 506.395H742.472V506ZM745.857 506V506.395H746.51L746.207 505.816L745.857 506ZM742.516 499.627L742.406 499.247L741.941 499.382L742.166 499.811L742.516 499.627ZM734.781 490.419V490.024H734.386V490.419H734.781ZM734.781 506H734.386V506.395H734.781V506ZM737.836 506V506.395H738.231V506H737.836ZM737.836 500.001V499.605H737.44V500.001H737.836ZM739.418 500.001L739.77 499.821L739.66 499.605H739.418V500.001ZM737.836 497.386H737.44V497.781H737.836V497.386ZM737.836 493.057V492.661H737.44V493.057H737.836ZM742.472 506.395H745.857V505.605H742.472V506.395ZM746.207 505.816L742.867 499.444L742.166 499.811L745.506 506.184L746.207 505.816ZM742.627 500.007C744.837 499.365 746.23 497.564 746.23 495.21H745.439C745.439 497.207 744.283 498.702 742.406 499.247L742.627 500.007ZM746.23 495.21C746.23 493.763 745.711 492.461 744.768 491.521C743.824 490.58 742.478 490.024 740.868 490.024V490.815C742.291 490.815 743.428 491.303 744.209 492.081C744.991 492.861 745.439 493.955 745.439 495.21H746.23ZM740.868 490.024H734.781V490.815H740.868V490.024ZM734.386 490.419V506H735.176V490.419H734.386ZM734.781 506.395H737.836V505.605H734.781V506.395ZM738.231 506V500.001H737.44V506H738.231ZM737.836 500.396H739.418V499.605H737.836V500.396ZM739.065 500.18L742.12 506.179L742.825 505.821L739.77 499.821L739.065 500.18ZM738.231 497.386V493.057H737.44V497.386H738.231ZM737.836 493.452H740.297V492.661H737.836V493.452ZM740.297 493.452C740.994 493.452 741.5 493.646 741.827 493.943C742.15 494.236 742.341 494.667 742.341 495.232H743.132C743.132 494.479 742.871 493.822 742.359 493.357C741.851 492.896 741.137 492.661 740.297 492.661V493.452ZM742.341 495.232C742.341 495.772 742.153 496.199 741.827 496.494C741.499 496.792 740.992 496.99 740.297 496.99V497.781C741.14 497.781 741.853 497.539 742.359 497.08C742.869 496.617 743.132 495.967 743.132 495.232H742.341ZM740.297 496.99H737.836V497.781H740.297V496.99Z" fill="#F2F2F7"/>
<path d="M1126.65 342.49C1126.65 353.197 1124.96 363.463 1121.81 373.1C1112.44 401.631 1090.43 424.305 1062.38 434.571C1051.94 438.413 1040.62 440.491 1028.86 440.491C1014.9 440.491 1001.56 437.531 989.552 432.24C955.087 417.125 931 382.61 931 342.49C931 334.68 931.88 327.122 933.641 319.879C936.974 305.897 943.264 293.049 951.817 282.09C951.88 282.027 951.943 281.964 951.943 281.901C953.2 280.326 954.521 278.752 955.842 277.24C956.408 276.61 956.974 275.98 957.603 275.351C957.791 275.162 957.98 274.91 958.169 274.721C958.295 274.595 958.357 274.469 958.483 274.406C958.798 274.091 959.112 273.713 959.49 273.398C960.181 272.705 960.936 271.949 961.691 271.257C962.257 270.69 962.886 270.186 963.452 269.619C964.081 269.052 964.772 268.422 965.464 267.856C966.345 267.1 967.288 266.344 968.168 265.588C974.709 260.424 981.879 256.078 989.614 252.677C1001.63 247.449 1014.83 244.489 1028.73 244.489C1061.5 244.489 1090.49 260.613 1108.29 285.428C1119.93 301.551 1126.65 321.265 1126.65 342.49Z" fill="#A4ADBC"/>
<mask id="mask0_7252_940" style="mask-type:alpha" maskUnits="userSpaceOnUse" x="930" y="244" width="197" height="197">
<path d="M1126.65 342.156C1126.65 352.863 1124.96 363.129 1121.81 372.765C1112.44 401.297 1090.43 423.97 1062.38 434.237C1051.94 438.079 1040.62 440.157 1028.86 440.157C1014.9 440.157 1001.56 437.197 989.552 431.906C955.087 416.79 931 382.276 931 342.156C931 334.346 931.88 326.788 933.641 319.545C936.974 305.563 943.264 292.714 951.817 281.755C951.88 281.692 951.943 281.629 951.943 281.567C953.2 279.992 954.521 278.417 955.842 276.906C956.408 276.276 956.974 275.646 957.603 275.016C957.791 274.827 957.98 274.575 958.169 274.386C958.295 274.261 958.357 274.135 958.483 274.072C958.798 273.757 959.112 273.379 959.49 273.064C960.181 272.371 960.936 271.615 961.691 270.922C962.257 270.356 962.886 269.852 963.452 269.285C964.081 268.718 964.772 268.088 965.464 267.521C966.345 266.766 967.288 266.01 968.168 265.254C974.709 260.089 981.879 255.744 989.614 252.343C1001.63 247.115 1014.83 244.155 1028.73 244.155C1061.5 244.155 1090.49 260.278 1108.29 285.094C1119.93 301.217 1126.65 320.931 1126.65 342.156Z" fill="url(#paint1_radial_7252_940)"/>
</mask>
<g mask="url(#mask0_7252_940)">
<path fill-rule="evenodd" clip-rule="evenodd" d="M1031.24 265.201C1031.73 266.196 1032.22 267.193 1032.38 268.151C1033.07 272.308 1029.24 278.417 1025.53 279.803C1025.19 279.931 1024.86 280.051 1024.55 280.166L1024.55 280.166L1024.55 280.167C1022.23 281.019 1020.52 281.648 1018.86 283.645L1018.76 283.755C1017.76 284.938 1017.3 285.482 1015.71 285.849C1015.16 285.983 1014.7 285.974 1014.29 285.966C1013.55 285.952 1012.96 285.941 1012.19 286.794C1011.66 287.375 1011.35 288.473 1011.03 289.605C1010.46 291.66 1009.86 293.827 1007.79 293.218C1005.84 292.651 1004.77 290.006 1004.33 288.305C1003.95 286.879 1003.7 285.294 1003.44 283.672C1002.81 279.704 1002.15 275.512 999.425 272.875C998.976 272.439 998.487 271.93 997.97 271.392C996.243 269.596 994.206 267.478 992.319 266.702C990.821 266.041 988.893 266.089 987.093 266.135C986.323 266.154 985.576 266.173 984.898 266.135C983.703 266.072 981.313 263.049 981.124 261.979C980.911 260.321 982.238 259.934 983.567 259.547C983.804 259.478 984.041 259.409 984.269 259.333C987.35 258.263 989.048 257.066 991.627 255.05C995.028 252.401 999.92 251.813 1004.54 251.257C1006.07 251.073 1007.58 250.892 1008.98 250.642C1012.76 250.012 1037.16 250.894 1037.16 255.176C1037.16 256.613 1035.26 257.482 1033.46 258.301C1032.27 258.847 1031.12 259.371 1030.62 260.026C1029.44 261.573 1030.34 263.383 1031.24 265.201ZM989.677 253.476C988.852 254.477 985.775 255.748 983.35 256.75C982.265 257.198 981.311 257.593 980.747 257.885C980.459 258.036 980.169 258.181 979.884 258.323C978.859 258.833 977.906 259.309 977.414 259.9C977.539 259.837 977.98 260.53 977.854 260.845C977.629 261.295 977.174 261.631 976.716 261.969C976.278 262.292 975.836 262.618 975.59 263.049C975.318 263.519 975.212 263.998 975.114 264.437C974.962 265.118 974.831 265.703 974.143 266.01C973.325 266.398 971.62 266.018 970.102 265.679C969.404 265.523 968.746 265.376 968.232 265.317C974.772 260.152 981.942 255.806 989.677 252.405C990.181 252.531 990.306 252.72 989.677 253.476ZM968.596 269.396C970.395 269.558 972.953 269.789 973.64 269.284C976.911 266.828 970.558 266.135 968.986 266.513C968.746 266.573 968.417 266.71 968.045 266.864L968.045 266.864L968.044 266.864L968.044 266.864C967.248 267.195 966.256 267.607 965.527 267.521C964.898 268.036 964.269 268.604 963.687 269.129L963.686 269.129L963.686 269.129L963.686 269.129L963.515 269.284H967.037C967.361 269.284 967.926 269.335 968.596 269.396ZM974.898 270.418C975.401 270.544 975.904 270.796 976.407 271.111C977.15 271.616 977.822 272.29 978.497 272.967C979.252 273.724 980.01 274.484 980.873 275.015C981.461 275.408 982.148 275.728 982.84 276.05C983.258 276.244 983.678 276.44 984.08 276.653C984.583 276.968 985.086 277.283 985.527 277.661C986.107 278.187 986.42 278.762 986.728 279.326C987.12 280.046 987.503 280.749 988.42 281.314C988.871 281.597 989.385 281.755 989.88 281.908C991.039 282.265 992.092 282.591 992.004 284.4C991.962 285.158 991.245 285.944 990.605 286.646L990.605 286.646L990.605 286.646C990.288 286.993 989.991 287.32 989.803 287.612C989.526 288.053 989.35 288.473 989.195 288.844C988.751 289.904 988.473 290.568 986.47 290.194C986.218 290.194 986.03 290.131 985.778 290.005C985.138 289.741 984.43 289.274 983.762 288.833C983.315 288.538 982.886 288.255 982.508 288.053C982.241 287.903 981.986 287.769 981.742 287.64L981.741 287.639L981.741 287.639C980.543 287.007 979.613 286.516 978.986 285.156C978.694 284.507 978.686 283.741 978.679 282.979C978.671 282.261 978.664 281.547 978.42 280.936C977.414 278.479 974.961 277.346 972.571 276.59C972.188 276.466 971.648 276.345 971.032 276.207L971.032 276.207C968.508 275.641 964.707 274.788 965.213 272.307L965.401 271.74C965.967 269.599 973.2 269.977 974.898 270.418ZM1016.19 372.155C1016.97 371.645 1017.74 371.135 1018.1 370.246C1020.15 365.177 1015.27 363.924 1012.1 363.108L1011.88 363.052L1011.69 363.003C1010.9 362.762 1010.08 362.56 1009.25 362.356C1007.69 361.972 1006.1 361.582 1004.71 360.924C1003.37 360.304 1003 359.598 1002.39 358.423L1002.39 358.423L1002.39 358.422C1002.25 358.167 1002.11 357.889 1001.94 357.586C1000.18 354.406 996.175 352.659 992.914 351.238L992.914 351.238L992.913 351.238L992.912 351.238L992.907 351.236C992.554 351.082 992.21 350.932 991.879 350.784C990.375 350.076 989.618 350.208 988.558 350.392C988.11 350.47 987.608 350.558 986.973 350.595C986.136 350.625 985.399 350.371 984.66 350.116C983.843 349.834 983.025 349.551 982.067 349.65C980.962 349.751 980.284 350.317 979.598 350.89C978.996 351.392 978.387 351.901 977.476 352.107C976.03 352.422 973.766 352.17 972.76 351.036C971.78 349.95 972.046 348.883 972.302 347.858C972.506 347.04 972.703 346.248 972.256 345.494C971.848 344.801 971.094 344.832 970.325 344.864C969.554 344.895 968.766 344.927 968.294 344.234C967.929 343.699 968.104 342.849 968.28 341.995C968.497 340.937 968.717 339.872 967.917 339.384C966.782 338.702 965.909 339.759 965.204 340.614C964.932 340.943 964.685 341.242 964.458 341.4C962.508 342.848 960.559 341.778 959.238 339.825C958.483 338.628 957.917 337.054 957.854 335.542C957.806 334.229 958.621 333.516 959.545 332.708L959.545 332.708C959.817 332.47 960.098 332.224 960.37 331.952C961.376 330.945 961.754 330.756 962.068 330.819C962.194 330.837 962.309 330.885 962.442 330.941C962.774 331.082 963.217 331.269 964.206 331.134C964.792 331.046 965.01 330.889 965.234 330.728C965.491 330.544 965.756 330.353 966.596 330.252C967.665 330.126 970.81 330.441 971.69 331.197C972.045 331.504 972.293 332.249 972.538 332.984C972.945 334.204 973.343 335.399 974.206 334.535C975.06 333.727 974.519 332.06 974.093 330.749C973.954 330.321 973.828 329.932 973.766 329.622C973.321 327.117 973.564 326.974 975.191 326.017C975.404 325.891 975.641 325.752 975.904 325.591L975.959 325.554C977.605 324.456 977.732 324.371 978.105 322.253C978.152 321.996 978.194 321.763 978.233 321.549L978.233 321.549C978.445 320.362 978.547 319.795 978.817 319.324C979.065 318.892 979.454 318.542 980.2 317.87L980.369 317.718C980.93 317.189 981.162 316.557 981.393 315.929C981.601 315.36 981.808 314.796 982.256 314.317C982.508 314.128 984.646 313.183 985.023 313.309C985.713 313.517 985.608 313.667 985.456 313.886C985.331 314.065 985.174 314.291 985.401 314.632C985.439 314.689 985.425 314.837 985.409 315.021C985.37 315.45 985.313 316.075 985.841 316.207C986.347 316.333 986.88 315.584 987.31 314.98L987.31 314.98L987.31 314.98C987.522 314.683 987.708 314.421 987.853 314.317C988.182 314.091 988.68 313.979 989.186 313.864C990.23 313.629 991.315 313.384 991.061 312.113C990.893 311.237 990.094 311.424 989.244 311.624C988.505 311.798 987.726 311.981 987.287 311.483C985.555 309.593 988.106 308.544 990.772 307.447C994.591 305.876 998.647 304.208 990.684 299.831C988.419 298.634 988.231 298.383 987.036 295.863L987.017 295.815L987.017 295.815C986.835 295.359 985.957 293.152 985.715 293.092C984.924 292.851 984.942 292.986 984.976 293.252C985.005 293.471 985.045 293.78 984.646 294.037C984.398 294.198 984.156 294.396 983.916 294.591L983.916 294.591C982.94 295.386 982.021 296.135 981.061 294.163C980.569 293.177 980.682 292.701 980.765 292.35C980.799 292.207 980.828 292.085 980.81 291.958C980.747 291.643 980.495 291.328 979.363 290.636L979.313 290.606C977.462 289.493 976.643 289.001 974.835 289.313C972.194 289.754 972.194 289.943 972.76 291.895C972.925 292.447 973.09 292.782 973.234 293.073C973.419 293.447 973.569 293.75 973.64 294.352C973.667 294.623 973.566 294.824 973.457 295.041C973.313 295.327 973.155 295.64 973.263 296.178C973.339 296.561 973.718 296.991 974.088 297.411C974.327 297.681 974.561 297.947 974.709 298.194C974.835 298.383 974.898 298.572 974.898 298.76C974.86 299.399 974.51 299.679 974.139 299.975C973.889 300.175 973.629 300.382 973.451 300.713C972.931 301.718 972.938 301.799 972.966 302.139C972.985 302.374 973.014 302.734 972.885 303.61C972.841 303.897 972.89 304.146 972.931 304.356C973.007 304.744 973.057 304.999 972.445 305.122C971.045 305.363 970.423 303.563 969.982 302.287C969.849 301.9 969.732 301.562 969.615 301.343C969.112 300.398 968.546 299.894 967.791 299.579C967.375 299.405 966.92 299.27 966.417 299.12L966.417 299.12L966.417 299.12L966.416 299.12C966.007 298.998 965.566 298.867 965.087 298.697C964.898 298.634 964.395 298.509 963.829 298.446C963.559 298.405 963.273 298.365 962.986 298.324C961.934 298.176 960.882 298.027 960.684 297.879C960.251 297.553 960.232 297.166 960.212 296.74C960.197 296.423 960.18 296.086 959.993 295.737C959.93 295.737 959.93 295.674 959.93 295.674C959.867 295.548 959.804 295.485 959.678 295.422C959.558 295.35 959.429 295.352 959.302 295.353C959.094 295.355 958.891 295.356 958.735 295.044C958.483 294.541 958.357 294.037 958.295 293.596C958.106 292.273 958.735 291.266 959.993 290.447C960.118 290.384 961.754 289.754 961.754 289.817C961.879 289.691 962.257 288.62 962.131 288.746L962.168 288.7C962.54 288.232 964.477 285.796 964.961 286.038C965.237 286.176 965.311 286.609 965.393 287.084C965.534 287.908 965.697 288.86 966.974 288.62C968.659 288.317 968.236 287.3 967.847 286.366C967.67 285.942 967.5 285.534 967.54 285.219C967.637 284.475 968.049 283.93 968.453 283.397C968.835 282.892 969.209 282.398 969.301 281.755C969.301 281.818 968.797 279.047 968.923 279.11C968.231 278.102 965.716 277.913 965.213 278.48C965.114 278.618 965.194 278.946 965.293 279.352C965.51 280.245 965.818 281.511 964.521 281.944C963.624 282.255 963.616 281.846 963.605 281.257C963.597 280.772 963.585 280.166 963.074 279.74C962.383 279.173 962.005 280.244 962.005 280.244C961.889 280.15 961.772 280.074 961.643 279.99L961.643 279.99L961.643 279.99L961.643 279.99L961.643 279.99C961.423 279.846 961.166 279.679 960.81 279.362C960.406 278.998 960.054 278.14 959.671 277.206L959.671 277.206L959.671 277.206L959.671 277.206C959.457 276.686 959.234 276.142 958.986 275.646C958.931 275.548 958.878 275.454 958.827 275.362C958.648 275.041 958.49 274.757 958.295 274.512C958.2 274.607 958.106 274.717 958.012 274.827L958.012 274.827C957.917 274.937 957.823 275.047 957.729 275.142C957.1 275.772 956.534 276.402 955.968 277.031C956.22 277.435 956.593 277.798 956.957 278.153L956.957 278.154L956.957 278.154C957.048 278.242 957.138 278.329 957.225 278.417C958.232 279.488 958.924 280.495 956.785 281.692C956.597 281.818 956.345 281.881 956.031 281.944C954.961 282.133 953.326 282.07 951.88 281.881C943.326 292.84 937.037 305.689 933.704 319.671C934.522 321.182 935.78 322.694 936.974 324.079C937.603 324.772 938.169 325.465 938.673 326.158C938.824 326.369 939.063 326.709 939.363 327.137L939.363 327.138L939.363 327.138L939.363 327.138L939.363 327.138C941.301 329.901 945.826 336.356 946.534 335.92C947.005 335.625 946.608 334.779 946.297 334.116C945.944 333.363 945.703 332.849 946.974 333.653C947.888 334.263 948.891 336.229 949.715 337.841L949.715 337.841L949.715 337.842L949.715 337.842C950.082 338.561 950.413 339.209 950.685 339.636C952.068 341.841 953.515 342.848 955.276 343.541C955.933 343.804 956.642 344.033 957.412 344.282C958.114 344.509 958.868 344.752 959.678 345.053C961.188 345.557 961.942 345.934 963.263 346.879C963.491 347.046 963.706 347.233 963.919 347.418L963.919 347.418C964.349 347.793 964.77 348.159 965.276 348.328C965.687 348.446 966.167 348.371 966.646 348.296C967.191 348.211 967.733 348.127 968.169 348.328C968.77 348.629 969.247 349.393 969.742 350.184C970.178 350.882 970.627 351.601 971.187 352.044C972.448 353.072 973.673 353.337 974.941 353.612L974.941 353.612C975.382 353.707 975.827 353.803 976.281 353.933C980.589 355.215 978.505 357.886 976.639 360.279C975.753 361.414 974.916 362.487 974.835 363.318C974.514 366.802 977.153 370.513 979.265 373.483C979.634 374.003 979.988 374.5 980.307 374.969C980.987 375.954 981.691 376.484 982.445 377.051L982.445 377.051C982.944 377.426 983.466 377.818 984.017 378.371C985.515 379.87 985.43 380.736 985.26 382.468C985.244 382.627 985.228 382.793 985.212 382.968C985.013 385.436 984.727 387.961 984.437 390.508C983.811 396.022 983.173 401.643 983.388 407.028C983.514 410.618 984.835 415.026 985.904 418.553C986.407 420.191 987.728 422.458 989.677 421.703C991.335 421.022 990.752 419.248 990.2 417.567C989.935 416.76 989.677 415.975 989.677 415.341C989.677 412.507 991.25 406.461 993.011 404.382C993.708 403.551 994.652 403 995.59 402.452C996.429 401.963 997.263 401.476 997.916 400.792C998.46 400.196 998.77 399.609 999.064 399.052C999.484 398.255 999.874 397.517 1000.87 396.887C1001.22 396.682 1001.52 396.563 1001.78 396.458C1002.32 396.24 1002.73 396.076 1003.2 395.313C1003.54 394.782 1003.73 394.103 1003.91 393.446C1003.97 393.246 1004.02 393.048 1004.08 392.857C1004.28 392.283 1004.46 391.617 1004.64 390.926C1005.05 389.415 1005.48 387.784 1006.22 386.747C1007.22 385.375 1008.59 384.942 1009.88 384.532C1011.68 383.964 1013.34 383.439 1013.7 380.512C1013.79 379.839 1013.79 379.04 1013.8 378.211C1013.81 376.634 1013.82 374.951 1014.39 373.836C1014.78 373.085 1015.49 372.62 1016.19 372.155ZM959.553 273.064C960.245 272.371 960.999 271.615 961.754 270.922C962.194 271.867 961.125 273.757 959.553 273.064ZM1039.22 282.705L1039.22 282.705C1037.53 282.372 1035.82 282.033 1034.27 282.133C1032.82 282.196 1031.44 282.763 1030.05 283.393C1029.36 283.708 1029.3 284.589 1029.86 285.03C1031.81 286.479 1033.26 287.55 1035.9 287.55C1039.4 287.55 1039.72 286.951 1041.02 284.589L1041.12 284.4C1041.44 283.771 1041.12 283.078 1040.49 282.952C1040.07 282.875 1039.64 282.79 1039.22 282.705ZM1105.09 284.622C1106.19 284.876 1107.28 285.13 1108.35 285.156C1119.93 301.216 1126.65 320.93 1126.65 342.155C1126.65 352.862 1124.96 363.128 1121.81 372.765C1121.7 372.903 1121.56 373.05 1121.43 373.206C1121.18 373.474 1120.92 373.768 1120.68 374.087C1117.16 378.288 1116.49 375.338 1115.52 371.063L1115.46 370.812C1115.24 369.884 1115.05 368.939 1114.86 367.989C1114.33 365.394 1113.8 362.772 1112.69 360.42C1110.43 355.633 1109.17 353.996 1104.52 352.799C1102.47 352.31 1102 351.852 1101.14 351.026C1100.79 350.682 1100.37 350.275 1099.74 349.776C1098.88 349.087 1098 348.944 1097.12 348.802C1096.4 348.684 1095.67 348.567 1094.96 348.138C1094.32 347.76 1093.84 346.737 1093.37 345.727C1092.82 344.55 1092.28 343.39 1091.5 343.289C1089.42 343.07 1090.01 345.092 1090.4 346.451C1090.46 346.654 1090.51 346.841 1090.56 347.005C1090.62 347.276 1090.67 347.552 1090.73 347.827C1091.14 349.78 1091.53 351.689 1093.57 351.854C1094.46 351.931 1095.03 351.616 1095.52 351.338C1096.25 350.93 1096.83 350.603 1098.1 351.728C1101.56 354.878 1098.79 360.105 1095.65 361.554C1093.45 362.561 1087.54 363.254 1085.02 362.624C1081.75 361.805 1081.04 358.354 1080.37 355.124C1080.12 353.885 1079.87 352.678 1079.49 351.665C1079.05 350.595 1074.9 341.966 1074.33 342.155C1073.74 342.315 1075.28 350.085 1075.88 353.096C1075.99 353.635 1076.06 354.022 1076.09 354.185C1076.61 357.427 1077.93 359.072 1079.85 361.47C1080.02 361.68 1080.19 361.897 1080.37 362.121C1081.27 363.277 1082.56 363.797 1083.8 364.297C1085.06 364.805 1086.27 365.292 1086.97 366.403C1088.1 368.23 1086.91 371.127 1085.84 372.639C1084.34 374.79 1081.86 376.177 1079.47 377.522C1078.35 378.147 1077.26 378.762 1076.28 379.441C1076.02 379.624 1075.77 379.787 1075.54 379.94C1074.24 380.787 1073.39 381.348 1073.39 383.535C1073.39 384.186 1073.55 384.838 1073.72 385.503C1073.92 386.252 1074.11 387.017 1074.08 387.818C1073.83 392.1 1072.82 394.179 1069.61 396.32C1069.38 396.47 1069.16 396.609 1068.95 396.742C1067.67 397.558 1066.73 398.151 1066.03 399.721C1065.73 400.429 1065.6 400.967 1065.5 401.421C1065.29 402.38 1065.16 402.957 1063.58 403.941C1063.36 404.076 1063.16 404.192 1062.99 404.296C1061.63 405.114 1061.57 405.148 1060.62 407.216C1059.8 408.917 1059.11 409.673 1057.73 410.995C1054.33 414.207 1053.07 414.459 1048.48 413.137C1044.72 412.068 1044.07 410.348 1042.81 407.034C1042.65 406.635 1042.49 406.214 1042.32 405.768C1042.12 405.288 1041.88 404.792 1041.64 404.288C1041.06 403.071 1040.46 401.806 1040.24 400.603C1040.01 399.379 1040.22 398.318 1040.44 397.236C1040.58 396.536 1040.72 395.828 1040.75 395.061C1040.79 393.636 1040.57 392.426 1040.36 391.28C1040.02 389.384 1039.7 387.661 1040.68 385.424C1040.85 385.037 1041.01 384.677 1041.16 384.338C1042.64 380.977 1043.2 379.695 1042 375.347C1041.86 374.847 1041.69 374.322 1041.5 373.785C1041.11 372.632 1040.71 371.426 1040.62 370.308C1040.52 369.31 1040.74 368.365 1040.95 367.416C1041.15 366.569 1041.34 365.72 1041.31 364.829C1041.23 362.961 1041.2 362.952 1040.64 362.776C1040.32 362.679 1039.85 362.532 1039.11 361.995C1038.64 361.64 1038.18 361.021 1037.73 360.413C1037.22 359.725 1036.72 359.05 1036.22 358.782C1035.19 358.289 1034.05 358.628 1032.95 358.958C1032.37 359.133 1031.79 359.306 1031.25 359.349C1029.68 359.475 1028.48 359.223 1026.91 358.845C1022.76 357.838 1020.93 356.515 1018.54 352.799C1018.14 352.154 1017.74 351.548 1017.35 350.965C1015.31 347.906 1013.7 345.493 1015.02 341.525C1015.44 340.263 1015.42 338.885 1015.4 337.53C1015.37 336.046 1015.34 334.588 1015.9 333.338C1016.36 332.291 1017.4 331.442 1018.35 330.672C1018.72 330.375 1019.07 330.09 1019.36 329.81C1021.75 327.669 1024.08 325.591 1026.53 323.638C1030.68 320.363 1035.34 320.993 1040.18 321.875C1040.98 322.035 1041.82 322.154 1042.66 322.274C1044.13 322.483 1045.61 322.694 1046.97 323.134C1048.04 323.49 1048.47 323.514 1048.66 323.742C1048.84 323.958 1048.8 324.359 1048.86 325.402C1048.91 326.316 1048.74 326.717 1048.63 326.987C1048.46 327.407 1048.42 327.515 1049.49 328.74C1050.68 330.125 1053.26 332.078 1054.9 332.897C1056.42 333.644 1057.35 333.285 1058.34 332.9C1059.11 332.603 1059.91 332.291 1061.06 332.456C1062.19 332.63 1063.56 333.406 1064.82 334.118C1065.38 334.436 1065.92 334.742 1066.41 334.975C1066.61 335.073 1066.84 335.177 1067.07 335.287C1069.81 336.587 1073.87 338.515 1075.9 336.424C1077.79 334.534 1077.16 331.385 1074.83 330.188C1074.05 329.779 1073.1 329.81 1072.16 329.842C1071.22 329.873 1070.27 329.905 1069.49 329.496C1068.5 329.018 1068.08 327.837 1067.71 326.775C1067.39 325.878 1067.11 325.066 1066.53 324.835C1065.84 324.564 1065.45 325.07 1065.04 325.603C1064.59 326.186 1064.12 326.801 1063.2 326.472C1061.98 326.036 1061.06 322.937 1060.3 320.363C1059.96 319.223 1059.65 318.186 1059.36 317.529C1059.06 316.837 1058.83 315.958 1058.61 315.091C1058.36 314.144 1058.12 313.211 1057.79 312.553C1057.61 312.214 1057.54 311.9 1057.49 311.641C1057.37 311.084 1057.31 310.784 1056.28 311.042C1055.65 311.231 1054.96 312.805 1054.9 313.372C1054.84 313.84 1055.27 314.964 1055.76 316.244C1056.85 319.102 1058.23 322.734 1055.15 321.56C1054.33 321.245 1052.19 317.592 1051.75 316.773C1051.46 316.193 1051.27 315.629 1051.09 315.108C1050.58 313.594 1050.19 312.442 1047.85 312.301C1046.28 312.238 1043.26 312.868 1041.94 313.687C1040.81 314.385 1040.38 315.557 1039.97 316.684C1039.6 317.692 1039.25 318.664 1038.42 319.229C1035.97 320.804 1030.37 319.418 1029.24 316.332C1028.36 313.939 1030.56 310.664 1032.63 310.286C1033.4 310.127 1034.11 310.347 1034.79 310.556C1035.73 310.845 1036.6 311.115 1037.48 310.349C1038.68 309.317 1038.47 308.024 1038.24 306.685C1038.07 305.654 1037.89 304.596 1038.36 303.61C1039.08 302.06 1040.77 301.316 1042.29 300.646C1042.63 300.499 1042.96 300.356 1043.26 300.209C1043.6 300.049 1043.94 299.88 1044.3 299.706C1046.75 298.503 1049.67 297.075 1052.25 297.185C1053.69 297.244 1055.05 297.724 1056.41 298.202C1057.98 298.753 1059.54 299.302 1061.19 299.201C1063.26 299.075 1066.22 298.76 1068.17 298.004C1069.23 297.579 1069.53 296.874 1069.83 296.181C1070.06 295.644 1070.29 295.114 1070.87 294.729C1071.2 294.511 1071.87 294.535 1072.58 294.559C1073.93 294.606 1075.41 294.657 1074.96 293.092C1074.65 291.963 1073.18 291.868 1071.86 291.783C1071.04 291.73 1070.27 291.68 1069.86 291.391C1066.55 288.89 1068.82 287.48 1071.01 286.123C1072.35 285.293 1073.66 284.483 1073.64 283.455V283.203C1073.32 281.755 1071.69 281.944 1069.93 282.636C1067.73 283.518 1065.4 285.219 1064.96 285.849C1064.4 286.723 1064.42 287.713 1064.45 288.723C1064.46 289.533 1064.48 290.355 1064.2 291.139C1063.89 292.147 1062.07 294.981 1061.19 295.548C1058.03 297.559 1057.4 295.422 1056.76 293.28C1056.38 292.001 1056 290.721 1055.08 290.32C1054.21 289.967 1053.49 290.142 1052.8 290.308C1051.89 290.526 1051.05 290.728 1050.05 289.691C1049.24 288.935 1048.29 285.786 1048.67 284.715C1049.38 282.809 1052.64 280.779 1055.25 279.15C1056.36 278.464 1057.34 277.85 1057.98 277.346C1058.92 276.59 1059.86 276.023 1060.87 275.582C1062.32 274.89 1063.76 274.386 1065.52 273.819C1066.28 273.567 1067.21 273.155 1068.22 272.704C1071.01 271.462 1074.46 269.93 1076.72 270.67C1078.76 271.292 1081.27 273.856 1083.39 276.02C1084.27 276.925 1085.09 277.76 1085.78 278.354L1085.78 278.354C1086.03 278.543 1086.28 278.732 1086.59 278.983C1086.71 279.068 1086.83 279.155 1086.95 279.245C1089.11 280.826 1092.31 283.162 1089.93 284.652C1089.42 284.963 1088.56 284.905 1087.7 284.847C1086.13 284.741 1084.56 284.635 1085.08 286.793C1085.52 288.557 1087.22 288.683 1088.42 288.62C1090.66 288.515 1092.86 287.416 1095.05 286.321C1096.8 285.447 1098.54 284.574 1100.3 284.211C1101.87 283.874 1103.49 284.249 1105.09 284.622ZM1079.81 325.056C1081.88 326.288 1084.26 327.706 1085.71 327.291C1088.94 326.361 1086.78 324.105 1084.8 322.044C1083.7 320.895 1082.65 319.807 1082.63 319.04C1082.57 316.773 1078.73 316.017 1077.1 315.891C1074.9 315.702 1074.39 316.017 1073.07 317.718C1070.23 321.342 1072.86 322.202 1075.86 323.182C1076.25 323.309 1076.64 323.438 1077.03 323.575C1077.76 323.833 1078.75 324.419 1079.81 325.056ZM1098.34 330.572C1098.4 330.036 1098.46 329.536 1098.54 329.118C1098.67 328.299 1098.79 327.417 1098.73 326.409C1098.73 325.969 1098.67 325.528 1098.61 325.087C1098.29 323.323 1097.41 321.875 1095.71 321.56C1091.5 320.788 1092.27 324.44 1092.84 327.183C1092.88 327.349 1092.91 327.511 1092.95 327.669C1093.08 328.428 1093.02 329.363 1092.95 330.323C1092.81 332.55 1092.65 334.907 1094.89 335.479C1097.68 336.203 1098.05 333.023 1098.34 330.572Z" fill="url(#paint2_linear_7252_940)"/>
<path d="M1061.99 387.253C985.789 443.776 924.107 374.433 909.947 338.957H905.475V494.576L1076.3 542.872L1198.83 330.461L1061.99 217.771C1088.97 246.54 1138.19 330.729 1061.99 387.253Z" fill="#576D90" fill-opacity="0.13"/>
<path d="M1061.99 387.253C985.789 443.776 924.107 374.433 909.947 338.957H905.475V494.576L1076.3 542.872L1198.83 330.461L1061.99 217.771C1088.97 246.54 1138.19 330.729 1061.99 387.253Z" fill="#576D90" fill-opacity="0.11"/>
<path d="M1035.98 338.342C980.836 379.393 936.199 329.031 925.951 303.266H922.715V416.287L1046.34 451.362L1169.18 416.287L1135.01 297.095L1035.98 215.253C1055.51 236.147 1091.12 297.29 1035.98 338.342Z" fill="#576D90" fill-opacity="0.11"/>
</g>
<ellipse cx="1081.99" cy="280.325" rx="7.79092" ry="1.90023" fill="#222E3A" fill-opacity="0.1"/>
<path fill-rule="evenodd" clip-rule="evenodd" d="M1086.19 273.591C1084.59 275.683 1083.06 277.678 1081.82 279.565C1080.9 278.291 1079.89 276.957 1078.84 275.572C1073.53 268.577 1067.23 260.28 1067.36 251.726C1067.36 243.627 1073.98 237 1082.08 237C1090.18 237 1096.81 243.627 1096.81 251.726C1096.81 259.751 1091.14 267.135 1086.19 273.591ZM1081.82 258.692C1085.81 258.692 1089.05 255.455 1089.05 251.461C1089.05 247.468 1085.81 244.23 1081.82 244.23C1077.82 244.23 1074.59 247.468 1074.59 251.461C1074.59 255.455 1077.82 258.692 1081.82 258.692Z" fill="#28496E"/>
<ellipse cx="946.043" cy="322.36" rx="7.79092" ry="1.90023" fill="#222E3A" fill-opacity="0.1"/>
<path fill-rule="evenodd" clip-rule="evenodd" d="M950.248 315.626C948.643 317.718 947.113 319.712 945.874 321.6C944.958 320.325 943.946 318.992 942.895 317.607C937.586 310.612 931.288 302.315 931.413 293.761C931.413 285.661 938.04 279.035 946.14 279.035C954.239 279.035 960.866 285.661 960.866 293.761C960.866 301.786 955.201 309.17 950.248 315.626ZM945.873 300.727C949.867 300.727 953.104 297.49 953.104 293.497C953.104 289.503 949.867 286.266 945.873 286.266C941.88 286.266 938.642 289.503 938.642 293.497C938.642 297.49 941.88 300.727 945.873 300.727Z" fill="#28496E"/>
<ellipse cx="1049.19" cy="414.949" rx="7.79092" ry="1.90023" fill="#222E3A" fill-opacity="0.1"/>
<path fill-rule="evenodd" clip-rule="evenodd" d="M1053.39 408.215C1051.79 410.307 1050.26 412.301 1049.02 414.189C1048.1 412.914 1047.09 411.581 1046.04 410.196C1040.73 403.201 1034.43 394.904 1034.56 386.35C1034.56 378.251 1041.19 371.624 1049.28 371.624C1057.38 371.624 1064.01 378.251 1064.01 386.35C1064.01 394.375 1058.35 401.759 1053.39 408.215ZM1049.02 393.316C1053.01 393.316 1056.25 390.078 1056.25 386.085C1056.25 382.092 1053.01 378.854 1049.02 378.854C1045.02 378.854 1041.79 382.092 1041.79 386.085C1041.79 390.078 1045.02 393.316 1049.02 393.316Z" fill="#28496E"/>
<rect x="980.182" y="323.144" width="132.464" height="41.2304" rx="20.6152" fill="#1F3C6A" fill-opacity="0.25"/>
<rect x="982.867" y="317.774" width="132.464" height="41.2304" rx="20.6152" fill="white"/>
<path d="M1028.12 339.726L1023.96 326.823H1020.2L1016.06 339.673L1012.64 326.823H1008.8L1013.98 345.493H1017.78L1022.04 332.195L1026.31 345.493H1030.05L1035.21 326.823H1031.5L1028.12 339.726ZM1056.57 339.726L1052.4 326.823H1048.64L1044.5 339.673L1041.08 326.823H1037.24L1042.42 345.493H1046.22L1050.48 332.195L1054.75 345.493H1058.49L1063.65 326.823H1059.94L1056.57 339.726ZM1085.01 339.726L1080.85 326.823H1077.08L1072.95 339.673L1069.52 326.823H1065.68L1070.87 345.493H1074.66L1078.92 332.195L1083.19 345.493H1086.93L1092.09 326.823H1088.38L1085.01 339.726Z" fill="#28496E"/>
<path d="M1028.12 339.726L1027.74 339.851L1028.17 341.179L1028.52 339.829L1028.12 339.726ZM1023.96 326.823L1024.35 326.698L1024.26 326.416H1023.96V326.823ZM1020.2 326.823V326.416H1019.9L1019.81 326.698L1020.2 326.823ZM1016.06 339.673L1015.67 339.778L1016.03 341.116L1016.45 339.798L1016.06 339.673ZM1012.64 326.823L1013.03 326.718L1012.95 326.416H1012.64V326.823ZM1008.8 326.823V326.416H1008.26L1008.4 326.932L1008.8 326.823ZM1013.98 345.493L1013.59 345.602L1013.67 345.9H1013.98V345.493ZM1017.78 345.493V345.9H1018.07L1018.16 345.617L1017.78 345.493ZM1022.04 332.195L1022.43 332.071L1022.04 330.863L1021.65 332.071L1022.04 332.195ZM1026.31 345.493L1025.92 345.617L1026.01 345.9H1026.31V345.493ZM1030.05 345.493V345.9H1030.36L1030.44 345.602L1030.05 345.493ZM1035.21 326.823L1035.6 326.931L1035.74 326.416H1035.21V326.823ZM1031.5 326.823V326.416H1031.18L1031.1 326.72L1031.5 326.823ZM1028.51 339.601L1024.35 326.698L1023.58 326.948L1027.74 339.851L1028.51 339.601ZM1023.96 326.416H1020.2V327.23H1023.96V326.416ZM1019.81 326.698L1015.68 339.549L1016.45 339.798L1020.59 326.947L1019.81 326.698ZM1016.46 339.569L1013.03 326.718L1012.25 326.927L1015.67 339.778L1016.46 339.569ZM1012.64 326.416H1008.8V327.23H1012.64V326.416ZM1008.4 326.932L1013.59 345.602L1014.38 345.384L1009.19 326.714L1008.4 326.932ZM1013.98 345.9H1017.78V345.086H1013.98V345.9ZM1018.16 345.617L1022.43 332.319L1021.65 332.071L1017.39 345.369L1018.16 345.617ZM1021.65 332.319L1025.92 345.617L1026.69 345.369L1022.43 332.071L1021.65 332.319ZM1026.31 345.9H1030.05V345.086H1026.31V345.9ZM1030.44 345.602L1035.6 326.931L1034.82 326.714L1029.65 345.385L1030.44 345.602ZM1035.21 326.416H1031.5V327.23H1035.21V326.416ZM1031.1 326.72L1027.73 339.623L1028.52 339.829L1031.89 326.926L1031.1 326.72ZM1056.57 339.726L1056.18 339.851L1056.61 341.179L1056.96 339.829L1056.57 339.726ZM1052.4 326.823L1052.79 326.698L1052.7 326.416H1052.4V326.823ZM1048.64 326.823V326.416H1048.34L1048.25 326.698L1048.64 326.823ZM1044.5 339.673L1044.11 339.778L1044.47 341.116L1044.89 339.798L1044.5 339.673ZM1041.08 326.823L1041.47 326.718L1041.39 326.416H1041.08V326.823ZM1037.24 326.823V326.416H1036.7L1036.84 326.932L1037.24 326.823ZM1042.42 345.493L1042.03 345.602L1042.12 345.9H1042.42V345.493ZM1046.22 345.493V345.9H1046.51L1046.6 345.617L1046.22 345.493ZM1050.48 332.195L1050.87 332.071L1050.48 330.863L1050.1 332.071L1050.48 332.195ZM1054.75 345.493L1054.36 345.617L1054.45 345.9H1054.75V345.493ZM1058.49 345.493V345.9H1058.8L1058.88 345.602L1058.49 345.493ZM1063.65 326.823L1064.04 326.931L1064.18 326.416H1063.65V326.823ZM1059.94 326.823V326.416H1059.62L1059.54 326.72L1059.94 326.823ZM1056.95 339.601L1052.79 326.698L1052.02 326.948L1056.18 339.851L1056.95 339.601ZM1052.4 326.416H1048.64V327.23H1052.4V326.416ZM1048.25 326.698L1044.12 339.549L1044.89 339.798L1049.03 326.947L1048.25 326.698ZM1044.9 339.569L1041.47 326.718L1040.69 326.927L1044.11 339.778L1044.9 339.569ZM1041.08 326.416H1037.24V327.23H1041.08V326.416ZM1036.84 326.932L1042.03 345.602L1042.82 345.384L1037.63 326.714L1036.84 326.932ZM1042.42 345.9H1046.22V345.086H1042.42V345.9ZM1046.6 345.617L1050.87 332.319L1050.1 332.071L1045.83 345.369L1046.6 345.617ZM1050.1 332.319L1054.36 345.617L1055.14 345.369L1050.87 332.071L1050.1 332.319ZM1054.75 345.9H1058.49V345.086H1054.75V345.9ZM1058.88 345.602L1064.04 326.931L1063.26 326.714L1058.1 345.385L1058.88 345.602ZM1063.65 326.416H1059.94V327.23H1063.65V326.416ZM1059.54 326.72L1056.17 339.623L1056.96 339.829L1060.33 326.926L1059.54 326.72ZM1085.01 339.726L1084.62 339.851L1085.05 341.179L1085.4 339.829L1085.01 339.726ZM1080.85 326.823L1081.23 326.698L1081.14 326.416H1080.85V326.823ZM1077.08 326.823V326.416H1076.78L1076.69 326.698L1077.08 326.823ZM1072.95 339.673L1072.55 339.778L1072.91 341.116L1073.33 339.798L1072.95 339.673ZM1069.52 326.823L1069.92 326.718L1069.84 326.416H1069.52V326.823ZM1065.68 326.823V326.416H1065.14L1065.29 326.932L1065.68 326.823ZM1070.87 345.493L1070.47 345.602L1070.56 345.9H1070.87V345.493ZM1074.66 345.493V345.9H1074.95L1075.05 345.617L1074.66 345.493ZM1078.92 332.195L1079.31 332.071L1078.92 330.863L1078.54 332.071L1078.92 332.195ZM1083.19 345.493L1082.8 345.617L1082.89 345.9H1083.19V345.493ZM1086.93 345.493V345.9H1087.24L1087.32 345.602L1086.93 345.493ZM1092.09 326.823L1092.48 326.931L1092.62 326.416H1092.09V326.823ZM1088.38 326.823V326.416H1088.06L1087.98 326.72L1088.38 326.823ZM1085.39 339.601L1081.23 326.698L1080.46 326.948L1084.62 339.851L1085.39 339.601ZM1080.85 326.416H1077.08V327.23H1080.85V326.416ZM1076.69 326.698L1072.56 339.549L1073.33 339.798L1077.47 326.947L1076.69 326.698ZM1073.34 339.569L1069.92 326.718L1069.13 326.927L1072.55 339.778L1073.34 339.569ZM1069.52 326.416H1065.68V327.23H1069.52V326.416ZM1065.29 326.932L1070.47 345.602L1071.26 345.384L1066.07 326.714L1065.29 326.932ZM1070.87 345.9H1074.66V345.086H1070.87V345.9ZM1075.05 345.617L1079.31 332.319L1078.54 332.071L1074.27 345.369L1075.05 345.617ZM1078.54 332.319L1082.8 345.617L1083.58 345.369L1079.31 332.071L1078.54 332.319ZM1083.19 345.9H1086.93V345.086H1083.19V345.9ZM1087.32 345.602L1092.48 326.931L1091.7 326.714L1086.54 345.385L1087.32 345.602ZM1092.09 326.416H1088.38V327.23H1092.09V326.416ZM1087.98 326.72L1084.61 339.623L1085.4 339.829L1088.77 326.926L1087.98 326.72Z" fill="#28496E"/>
<rect x="948.538" y="483" width="160" height="31" rx="15.5" fill="#8F9DB4"/>
<path d="M979.058 506.021V490.44H975.981V506.021H979.058ZM996.433 506.021V490.44H993.401V500.747L986.918 490.44H983.138V506.021H986.171V494.967L993.247 506.021H996.433ZM1011.96 493.319V490.44H999.059V493.319H1003.98V506.021H1007.04V493.319H1011.96ZM1024.33 506.021V503.164H1017.61V499.56H1023.7V496.857H1017.61V493.297H1024.33V490.44H1014.58V506.021H1024.33ZM1035.43 506.021H1038.82L1035.48 499.648C1037.52 499.055 1038.8 497.407 1038.8 495.231C1038.8 492.528 1036.86 490.44 1033.83 490.44H1027.74V506.021H1030.8V500.022H1032.38L1035.43 506.021ZM1030.8 497.407V493.078H1033.26C1034.8 493.078 1035.7 493.935 1035.7 495.253C1035.7 496.528 1034.8 497.407 1033.26 497.407H1030.8ZM1055.32 506.021V490.44H1052.29V500.747L1045.8 490.44H1042.02V506.021H1045.06V494.967L1052.13 506.021H1055.32ZM1069.17 506.021V503.164H1062.45V499.56H1068.54V496.857H1062.45V493.297H1069.17V490.44H1059.42V506.021H1069.17ZM1084.01 493.319V490.44H1071.11V493.319H1076.03V506.021H1079.09V493.319H1084.01Z" fill="#F2F2F7"/>
<path d="M979.058 506.021V506.416H979.453V506.021H979.058ZM979.058 490.44H979.453V490.045H979.058V490.44ZM975.981 490.44V490.045H975.586V490.44H975.981ZM975.981 506.021H975.586V506.416H975.981V506.021ZM979.453 506.021V490.44H978.663V506.021H979.453ZM979.058 490.045H975.981V490.836H979.058V490.045ZM975.586 490.44V506.021H976.377V490.44H975.586ZM975.981 506.416H979.058V505.626H975.981V506.416ZM996.433 506.021V506.416H996.829V506.021H996.433ZM996.433 490.44H996.829V490.045H996.433V490.44ZM993.401 490.44V490.045H993.005V490.44H993.401ZM993.401 500.747L993.066 500.957L993.796 502.118V500.747H993.401ZM986.918 490.44L987.253 490.23L987.136 490.045H986.918V490.44ZM983.138 490.44V490.045H982.743V490.44H983.138ZM983.138 506.021H982.743V506.416H983.138V506.021ZM986.171 506.021V506.416H986.566V506.021H986.171ZM986.171 494.967L986.504 494.754L985.775 493.616V494.967H986.171ZM993.247 506.021L992.914 506.234L993.03 506.416H993.247V506.021ZM996.829 506.021V490.44H996.038V506.021H996.829ZM996.433 490.045H993.401V490.836H996.433V490.045ZM993.005 490.44V500.747H993.796V490.44H993.005ZM993.735 500.536L987.253 490.23L986.583 490.651L993.066 500.957L993.735 500.536ZM986.918 490.045H983.138V490.836H986.918V490.045ZM982.743 490.44V506.021H983.533V490.44H982.743ZM983.138 506.416H986.171V505.626H983.138V506.416ZM986.566 506.021V494.967H985.775V506.021H986.566ZM985.838 495.181L992.914 506.234L993.58 505.808L986.504 494.754L985.838 495.181ZM993.247 506.416H996.433V505.626H993.247V506.416ZM1011.96 493.319V493.715H1012.35V493.319H1011.96ZM1011.96 490.44H1012.35V490.045H1011.96V490.44ZM999.059 490.44V490.045H998.663V490.44H999.059ZM999.059 493.319H998.663V493.715H999.059V493.319ZM1003.98 493.319H1004.38V492.924H1003.98V493.319ZM1003.98 506.021H1003.59V506.416H1003.98V506.021ZM1007.04 506.021V506.416H1007.43V506.021H1007.04ZM1007.04 493.319V492.924H1006.64V493.319H1007.04ZM1012.35 493.319V490.44H1011.56V493.319H1012.35ZM1011.96 490.045H999.059V490.836H1011.96V490.045ZM998.663 490.44V493.319H999.454V490.44H998.663ZM999.059 493.715H1003.98V492.924H999.059V493.715ZM1003.59 493.319V506.021H1004.38V493.319H1003.59ZM1003.98 506.416H1007.04V505.626H1003.98V506.416ZM1007.43 506.021V493.319H1006.64V506.021H1007.43ZM1007.04 493.715H1011.96V492.924H1007.04V493.715ZM1024.33 506.021V506.416H1024.73V506.021H1024.33ZM1024.33 503.164H1024.73V502.769H1024.33V503.164ZM1017.61 503.164H1017.21V503.56H1017.61V503.164ZM1017.61 499.56V499.165H1017.21V499.56H1017.61ZM1023.7 499.56V499.956H1024.09V499.56H1023.7ZM1023.7 496.857H1024.09V496.462H1023.7V496.857ZM1017.61 496.857H1017.21V497.253H1017.61V496.857ZM1017.61 493.297V492.902H1017.21V493.297H1017.61ZM1024.33 493.297V493.693H1024.73V493.297H1024.33ZM1024.33 490.44H1024.73V490.045H1024.33V490.44ZM1014.58 490.44V490.045H1014.18V490.44H1014.58ZM1014.58 506.021H1014.18V506.416H1014.58V506.021ZM1024.73 506.021V503.164H1023.94V506.021H1024.73ZM1024.33 502.769H1017.61V503.56H1024.33V502.769ZM1018 503.164V499.56H1017.21V503.164H1018ZM1017.61 499.956H1023.7V499.165H1017.61V499.956ZM1024.09 499.56V496.857H1023.3V499.56H1024.09ZM1023.7 496.462H1017.61V497.253H1023.7V496.462ZM1018 496.857V493.297H1017.21V496.857H1018ZM1017.61 493.693H1024.33V492.902H1017.61V493.693ZM1024.73 493.297V490.44H1023.94V493.297H1024.73ZM1024.33 490.045H1014.58V490.836H1024.33V490.045ZM1014.18 490.44V506.021H1014.97V490.44H1014.18ZM1014.58 506.416H1024.33V505.626H1014.58V506.416ZM1035.43 506.021L1035.08 506.2L1035.19 506.416H1035.43V506.021ZM1038.82 506.021V506.416H1039.47L1039.17 505.837L1038.82 506.021ZM1035.48 499.648L1035.37 499.268L1034.9 499.403L1035.13 499.832L1035.48 499.648ZM1027.74 490.44V490.045H1027.35V490.44H1027.74ZM1027.74 506.021H1027.35V506.416H1027.74V506.021ZM1030.8 506.021V506.416H1031.19V506.021H1030.8ZM1030.8 500.022V499.626H1030.4V500.022H1030.8ZM1032.38 500.022L1032.73 499.842L1032.62 499.626H1032.38V500.022ZM1030.8 497.407H1030.4V497.802H1030.8V497.407ZM1030.8 493.078V492.682H1030.4V493.078H1030.8ZM1035.43 506.416H1038.82V505.626H1035.43V506.416ZM1039.17 505.837L1035.83 499.465L1035.13 499.832L1038.47 506.205L1039.17 505.837ZM1035.59 500.028C1037.8 499.386 1039.19 497.585 1039.19 495.231H1038.4C1038.4 497.228 1037.24 498.723 1035.37 499.268L1035.59 500.028ZM1039.19 495.231C1039.19 493.784 1038.67 492.482 1037.73 491.542C1036.78 490.601 1035.44 490.045 1033.83 490.045V490.836C1035.25 490.836 1036.39 491.324 1037.17 492.102C1037.95 492.882 1038.4 493.976 1038.4 495.231H1039.19ZM1033.83 490.045H1027.74V490.836H1033.83V490.045ZM1027.35 490.44V506.021H1028.14V490.44H1027.35ZM1027.74 506.416H1030.8V505.626H1027.74V506.416ZM1031.19 506.021V500.022H1030.4V506.021H1031.19ZM1030.8 500.417H1032.38V499.626H1030.8V500.417ZM1032.03 500.201L1035.08 506.2L1035.79 505.842L1032.73 499.842L1032.03 500.201ZM1031.19 497.407V493.078H1030.4V497.407H1031.19ZM1030.8 493.473H1033.26V492.682H1030.8V493.473ZM1033.26 493.473C1033.96 493.473 1034.46 493.667 1034.79 493.964C1035.11 494.257 1035.3 494.688 1035.3 495.253H1036.09C1036.09 494.5 1035.83 493.843 1035.32 493.378C1034.81 492.917 1034.1 492.682 1033.26 492.682V493.473ZM1035.3 495.253C1035.3 495.793 1035.11 496.22 1034.79 496.515C1034.46 496.813 1033.95 497.011 1033.26 497.011V497.802C1034.1 497.802 1034.81 497.56 1035.32 497.101C1035.83 496.638 1036.09 495.988 1036.09 495.253H1035.3ZM1033.26 497.011H1030.8V497.802H1033.26V497.011ZM1055.32 506.021V506.416H1055.71V506.021H1055.32ZM1055.32 490.44H1055.71V490.045H1055.32V490.44ZM1052.29 490.44V490.045H1051.89V490.44H1052.29ZM1052.29 500.747L1051.95 500.957L1052.68 502.118V500.747H1052.29ZM1045.8 490.44L1046.14 490.23L1046.02 490.045H1045.8V490.44ZM1042.02 490.44V490.045H1041.63V490.44H1042.02ZM1042.02 506.021H1041.63V506.416H1042.02V506.021ZM1045.06 506.021V506.416H1045.45V506.021H1045.06ZM1045.06 494.967L1045.39 494.754L1044.66 493.616V494.967H1045.06ZM1052.13 506.021L1051.8 506.234L1051.92 506.416H1052.13V506.021ZM1055.71 506.021V490.44H1054.92V506.021H1055.71ZM1055.32 490.045H1052.29V490.836H1055.32V490.045ZM1051.89 490.44V500.747H1052.68V490.44H1051.89ZM1052.62 500.536L1046.14 490.23L1045.47 490.651L1051.95 500.957L1052.62 500.536ZM1045.8 490.045H1042.02V490.836H1045.8V490.045ZM1041.63 490.44V506.021H1042.42V490.44H1041.63ZM1042.02 506.416H1045.06V505.626H1042.02V506.416ZM1045.45 506.021V494.967H1044.66V506.021H1045.45ZM1044.72 495.181L1051.8 506.234L1052.47 505.808L1045.39 494.754L1044.72 495.181ZM1052.13 506.416H1055.32V505.626H1052.13V506.416ZM1069.17 506.021V506.416H1069.57V506.021H1069.17ZM1069.17 503.164H1069.57V502.769H1069.17V503.164ZM1062.45 503.164H1062.05V503.56H1062.45V503.164ZM1062.45 499.56V499.165H1062.05V499.56H1062.45ZM1068.54 499.56V499.956H1068.93V499.56H1068.54ZM1068.54 496.857H1068.93V496.462H1068.54V496.857ZM1062.45 496.857H1062.05V497.253H1062.45V496.857ZM1062.45 493.297V492.902H1062.05V493.297H1062.45ZM1069.17 493.297V493.693H1069.57V493.297H1069.17ZM1069.17 490.44H1069.57V490.045H1069.17V490.44ZM1059.42 490.44V490.045H1059.02V490.44H1059.42ZM1059.42 506.021H1059.02V506.416H1059.42V506.021ZM1069.57 506.021V503.164H1068.78V506.021H1069.57ZM1069.17 502.769H1062.45V503.56H1069.17V502.769ZM1062.84 503.164V499.56H1062.05V503.164H1062.84ZM1062.45 499.956H1068.54V499.165H1062.45V499.956ZM1068.93 499.56V496.857H1068.14V499.56H1068.93ZM1068.54 496.462H1062.45V497.253H1068.54V496.462ZM1062.84 496.857V493.297H1062.05V496.857H1062.84ZM1062.45 493.693H1069.17V492.902H1062.45V493.693ZM1069.57 493.297V490.44H1068.78V493.297H1069.57ZM1069.17 490.045H1059.42V490.836H1069.17V490.045ZM1059.02 490.44V506.021H1059.81V490.44H1059.02ZM1059.42 506.416H1069.17V505.626H1059.42V506.416ZM1084.01 493.319V493.715H1084.4V493.319H1084.01ZM1084.01 490.44H1084.4V490.045H1084.01V490.44ZM1071.11 490.44V490.045H1070.71V490.44H1071.11ZM1071.11 493.319H1070.71V493.715H1071.11V493.319ZM1076.03 493.319H1076.43V492.924H1076.03V493.319ZM1076.03 506.021H1075.64V506.416H1076.03V506.021ZM1079.09 506.021V506.416H1079.48V506.021H1079.09ZM1079.09 493.319V492.924H1078.69V493.319H1079.09ZM1084.4 493.319V490.44H1083.61V493.319H1084.4ZM1084.01 490.045H1071.11V490.836H1084.01V490.045ZM1070.71 490.44V493.319H1071.51V490.44H1070.71ZM1071.11 493.715H1076.03V492.924H1071.11V493.715ZM1075.64 493.319V506.021H1076.43V493.319H1075.64ZM1076.03 506.416H1079.09V505.626H1076.03V506.416ZM1079.48 506.021V493.319H1078.69V506.021H1079.48ZM1079.09 493.715H1084.01V492.924H1079.09V493.715Z" fill="#F2F2F7"/>
<path fill-rule="evenodd" clip-rule="evenodd" d="M210.33 403.303H386.583C388.425 403.303 389.912 401.816 389.912 399.974V292.329C389.912 290.487 388.425 289 386.583 289H210.33C208.488 289 207.001 290.487 207.001 292.329V399.974C207.001 401.816 208.488 403.303 210.33 403.303Z" fill="#8D9DB6"/>
<path fill-rule="evenodd" clip-rule="evenodd" d="M210.33 403.303H386.583C388.425 403.303 389.912 401.816 389.912 399.974V292.329C389.912 290.487 388.425 289 386.583 289H210.33C208.488 289 207.001 290.487 207.001 292.329V399.974C207.001 401.816 208.488 403.303 210.33 403.303Z" fill="url(#paint3_linear_7252_940)"/>
<mask id="mask1_7252_940" style="mask-type:alpha" maskUnits="userSpaceOnUse" x="214" y="296" width="169" height="100">
<path d="M214.09 296.239H382.878V395.224H214.09V296.239Z" fill="white"/>
</mask>
<g mask="url(#mask1_7252_940)">
<path d="M214.09 296.239H382.878V395.224H214.09V296.239Z" fill="#222E3A"/>
<g style="mix-blend-mode:soft-light">
<path d="M267.571 357.779C290.621 374.778 252.37 398.025 233.182 404.504C245.891 412.852 277.738 426.109 303.456 412.353C335.602 395.159 303.456 382.076 306.072 341.332C307.644 316.854 353.669 288.253 381.206 277.039H237.667C232.434 293.486 237.667 335.725 267.571 357.779Z" fill="url(#paint4_linear_7252_940)"/>
<path d="M358.404 341.332C358.404 324.885 325.51 317.783 318.407 345.07C316.165 363.012 325.883 367.498 336.724 367.872C347.564 368.245 358.404 357.779 358.404 341.332Z" fill="url(#paint5_linear_7252_940)"/>
</g>
</g>
<path fill-rule="evenodd" clip-rule="evenodd" d="M173.937 430.125L204.573 405.112C205.995 403.949 207.805 403.302 209.647 403.302H295.156H301.296H386.805C388.647 403.302 390.457 403.949 391.879 405.112L422.514 430.125C424.356 431.611 423.29 434.584 420.931 434.584H301.328H295.188H175.521C173.161 434.584 172.095 431.611 173.937 430.125Z" fill="url(#paint6_linear_7252_940)"/>
<path fill-rule="evenodd" clip-rule="evenodd" d="M173.928 430.125L204.564 405.112C205.986 403.949 207.796 403.302 209.638 403.302H295.147H301.287H386.796C388.638 403.302 390.448 403.949 391.87 405.112L422.506 430.125C424.348 431.611 423.281 434.584 420.922 434.584H301.32H295.179H175.577C173.153 434.584 172.119 431.611 173.928 430.125Z" fill="#8D9DB6"/>
<path d="M295.124 432.84H301.264H423.387V434.133C423.387 437.364 420.77 440.014 417.506 440.014H301.264H295.124H178.882C175.65 440.014 173 437.397 173 434.133V432.84H295.124Z" fill="#8D9DB6"/>
<path d="M295.124 432.84H301.264H423.387V434.133C423.387 437.364 420.77 440.014 417.506 440.014H301.264H295.124H178.882C175.65 440.014 173 437.397 173 434.133V432.84H295.124Z" fill="#222E3A" fill-opacity="0.4"/>
<path d="M385.318 409.958H214.754C214.137 409.958 213.541 410.185 213.08 410.595L198.988 423.144C198.412 423.656 198.775 424.609 199.545 424.609H401.687C402.474 424.609 402.827 423.622 402.22 423.122L386.917 410.531C386.466 410.161 385.901 409.958 385.318 409.958Z" fill="#F2F2F7"/>
<rect x="228.693" y="402.069" width="18.4821" height="1.80313" rx="0.901566" fill="#F2F2F7"/>
<rect x="348.549" y="402.069" width="18.4821" height="1.80313" rx="0.901566" fill="#F2F2F7"/>
<rect x="230" y="483" width="137.001" height="30.4446" rx="15.2223" fill="#8F9DB4"/>
<path d="M267.485 506.33C271.858 506.33 274.1 503.429 274.693 501.034L271.858 500.177C271.441 501.627 270.144 503.363 267.485 503.363C264.98 503.363 262.651 501.539 262.651 498.221C262.651 494.683 265.112 493.013 267.441 493.013C270.144 493.013 271.353 494.661 271.727 496.155L274.583 495.254C273.968 492.727 271.749 490.09 267.441 490.09C263.266 490.09 259.508 493.254 259.508 498.221C259.508 503.187 263.134 506.33 267.485 506.33ZM287.458 506V503.099H280.514V490.419H277.481V506H287.458ZM293.144 506V490.419H290.067V506H293.144ZM306.981 506V503.143H300.256V499.539H306.343V496.836H300.256V493.276H306.981V490.419H297.224V506H306.981ZM323.684 506V490.419H320.652V500.726L314.169 490.419H310.389V506H313.422V494.946L320.498 506H323.684ZM339.209 493.298V490.419H326.31V493.298H331.232V506H334.287V493.298H339.209Z" fill="#F2F2F7"/>
<path d="M274.693 501.034L275.077 501.129L275.168 500.764L274.808 500.655L274.693 501.034ZM271.858 500.177L271.973 499.798L271.589 499.682L271.478 500.067L271.858 500.177ZM271.727 496.155L271.343 496.251L271.445 496.659L271.846 496.532L271.727 496.155ZM274.583 495.254L274.702 495.631L275.055 495.52L274.968 495.161L274.583 495.254ZM267.485 506.725C272.073 506.725 274.448 503.667 275.077 501.129L274.309 500.938C273.751 503.191 271.644 505.934 267.485 505.934V506.725ZM274.808 500.655L271.973 499.798L271.744 500.555L274.579 501.412L274.808 500.655ZM271.478 500.067C271.096 501.394 269.924 502.968 267.485 502.968V503.758C270.365 503.758 271.785 501.859 272.238 500.286L271.478 500.067ZM267.485 502.968C266.328 502.968 265.221 502.546 264.404 501.753C263.592 500.963 263.046 499.782 263.046 498.221H262.255C262.255 499.977 262.875 501.368 263.853 502.32C264.828 503.267 266.138 503.758 267.485 503.758V502.968ZM263.046 498.221C263.046 496.55 263.624 495.355 264.445 494.577C265.271 493.793 266.368 493.408 267.441 493.408V492.617C266.185 492.617 264.887 493.067 263.9 494.003C262.908 494.944 262.255 496.354 262.255 498.221H263.046ZM267.441 493.408C268.707 493.408 269.59 493.791 270.198 494.321C270.811 494.857 271.171 495.565 271.343 496.251L272.11 496.059C271.908 495.251 271.477 494.388 270.717 493.725C269.952 493.058 268.879 492.617 267.441 492.617V493.408ZM271.846 496.532L274.702 495.631L274.464 494.877L271.608 495.778L271.846 496.532ZM274.968 495.161C274.314 492.475 271.95 489.694 267.441 489.694V490.485C271.547 490.485 273.622 492.979 274.199 495.348L274.968 495.161ZM267.441 489.694C263.061 489.694 259.113 493.023 259.113 498.221H259.904C259.904 493.485 263.472 490.485 267.441 490.485V489.694ZM259.113 498.221C259.113 503.417 262.927 506.725 267.485 506.725V505.934C263.341 505.934 259.904 502.957 259.904 498.221H259.113ZM287.458 506V506.395H287.853V506H287.458ZM287.458 503.099H287.853V502.704H287.458V503.099ZM280.514 503.099H280.118V503.495H280.514V503.099ZM280.514 490.419H280.909V490.024H280.514V490.419ZM277.481 490.419V490.024H277.086V490.419H277.481ZM277.481 506H277.086V506.395H277.481V506ZM287.853 506V503.099H287.062V506H287.853ZM287.458 502.704H280.514V503.495H287.458V502.704ZM280.909 503.099V490.419H280.118V503.099H280.909ZM280.514 490.024H277.481V490.815H280.514V490.024ZM277.086 490.419V506H277.877V490.419H277.086ZM277.481 506.395H287.458V505.605H277.481V506.395ZM293.144 506V506.395H293.539V506H293.144ZM293.144 490.419H293.539V490.024H293.144V490.419ZM290.067 490.419V490.024H289.672V490.419H290.067ZM290.067 506H289.672V506.395H290.067V506ZM293.539 506V490.419H292.748V506H293.539ZM293.144 490.024H290.067V490.815H293.144V490.024ZM289.672 490.419V506H290.463V490.419H289.672ZM290.067 506.395H293.144V505.605H290.067V506.395ZM306.981 506V506.395H307.376V506H306.981ZM306.981 503.143H307.376V502.748H306.981V503.143ZM300.256 503.143H299.861V503.539H300.256V503.143ZM300.256 499.539V499.144H299.861V499.539H300.256ZM306.343 499.539V499.935H306.739V499.539H306.343ZM306.343 496.836H306.739V496.441H306.343V496.836ZM300.256 496.836H299.861V497.232H300.256V496.836ZM300.256 493.276V492.881H299.861V493.276H300.256ZM306.981 493.276V493.672H307.376V493.276H306.981ZM306.981 490.419H307.376V490.024H306.981V490.419ZM297.224 490.419V490.024H296.828V490.419H297.224ZM297.224 506H296.828V506.395H297.224V506ZM307.376 506V503.143H306.585V506H307.376ZM306.981 502.748H300.256V503.539H306.981V502.748ZM300.652 503.143V499.539H299.861V503.143H300.652ZM300.256 499.935H306.343V499.144H300.256V499.935ZM306.739 499.539V496.836H305.948V499.539H306.739ZM306.343 496.441H300.256V497.232H306.343V496.441ZM300.652 496.836V493.276H299.861V496.836H300.652ZM300.256 493.672H306.981V492.881H300.256V493.672ZM307.376 493.276V490.419H306.585V493.276H307.376ZM306.981 490.024H297.224V490.815H306.981V490.024ZM296.828 490.419V506H297.619V490.419H296.828ZM297.224 506.395H306.981V505.605H297.224V506.395ZM323.684 506V506.395H324.08V506H323.684ZM323.684 490.419H324.08V490.024H323.684V490.419ZM320.652 490.419V490.024H320.256V490.419H320.652ZM320.652 500.726L320.317 500.936L321.047 502.097V500.726H320.652ZM314.169 490.419L314.504 490.209L314.387 490.024H314.169V490.419ZM310.389 490.419V490.024H309.994V490.419H310.389ZM310.389 506H309.994V506.395H310.389V506ZM313.422 506V506.395H313.817V506H313.422ZM313.422 494.946L313.755 494.733L313.026 493.595V494.946H313.422ZM320.498 506L320.165 506.213L320.281 506.395H320.498V506ZM324.08 506V490.419H323.289V506H324.08ZM323.684 490.024H320.652V490.815H323.684V490.024ZM320.256 490.419V500.726H321.047V490.419H320.256ZM320.986 500.515L314.504 490.209L313.834 490.63L320.317 500.936L320.986 500.515ZM314.169 490.024H310.389V490.815H314.169V490.024ZM309.994 490.419V506H310.785V490.419H309.994ZM310.389 506.395H313.422V505.605H310.389V506.395ZM313.817 506V494.946H313.026V506H313.817ZM313.089 495.16L320.165 506.213L320.831 505.787L313.755 494.733L313.089 495.16ZM320.498 506.395H323.684V505.605H320.498V506.395ZM339.209 493.298V493.694H339.605V493.298H339.209ZM339.209 490.419H339.605V490.024H339.209V490.419ZM326.31 490.419V490.024H325.914V490.419H326.31ZM326.31 493.298H325.914V493.694H326.31V493.298ZM331.232 493.298H331.628V492.903H331.232V493.298ZM331.232 506H330.837V506.395H331.232V506ZM334.287 506V506.395H334.682V506H334.287ZM334.287 493.298V492.903H333.892V493.298H334.287ZM339.605 493.298V490.419H338.814V493.298H339.605ZM339.209 490.024H326.31V490.815H339.209V490.024ZM325.914 490.419V493.298H326.705V490.419H325.914ZM326.31 493.694H331.232V492.903H326.31V493.694ZM330.837 493.298V506H331.628V493.298H330.837ZM331.232 506.395H334.287V505.605H331.232V506.395ZM334.682 506V493.298H333.892V506H334.682ZM334.287 493.694H339.209V492.903H334.287V493.694Z" fill="#F2F2F7"/>
<path d="M450.856 341.665L529.5 341.665" stroke="#44BCD2" stroke-width="3.04706" stroke-linecap="round"/>
<path d="M444 341.665L454.855 350.901L454.855 332.429L444 341.665Z" fill="#44BCD2"/>
<path d="M525.847 361.471L448 361.471" stroke="#44BCD2" stroke-width="3.04706" stroke-linecap="round"/>
<path d="M532.703 361.471L521.848 370.707L521.848 352.235L532.703 361.471Z" fill="#44BCD2"/>
<path d="M796.856 341.665L875.5 341.665" stroke="#44BCD2" stroke-width="3.04706" stroke-linecap="round"/>
<path d="M790 341.665L800.855 350.901L800.855 332.429L790 341.665Z" fill="#44BCD2"/>
<path d="M871.847 361.471L794 361.471" stroke="#44BCD2" stroke-width="3.04706" stroke-linecap="round"/>
<path d="M878.703 361.471L867.848 370.707L867.848 352.235L878.703 361.471Z" fill="#44BCD2"/>
<path d="M960 226.575C880.715 147.143 771.097 98 650 98C507.918 98 381.637 165.652 301.612 270.5" stroke="#FF576F" stroke-width="3" stroke-linecap="round"/>
<path d="M963.806 230.742L949.587 229.766L962.493 216.55L963.806 230.742Z" fill="#FF576F"/>
<circle cx="663.5" cy="99.5" r="19.5" fill="#FF576F"/>
<path d="M673 91L655 108" stroke="white" stroke-width="4" stroke-linecap="round"/>
<path d="M655 91L673 108" stroke="white" stroke-width="4" stroke-linecap="round"/>
<defs>
<linearGradient id="paint0_linear_7252_940" x1="728.843" y1="541.55" x2="681.548" y2="291.337" gradientUnits="userSpaceOnUse">
<stop stop-color="#28496E"/>
<stop offset="1" stop-color="#28496E" stop-opacity="0"/>
</linearGradient>
<radialGradient id="paint1_radial_7252_940" cx="0" cy="0" r="1" gradientUnits="userSpaceOnUse" gradientTransform="translate(1028.83 342.156) scale(93.0303 93.1655)">
<stop stop-color="#F4F5F8"/>
<stop offset="1" stop-color="#C7CEDA"/>
</radialGradient>
<linearGradient id="paint2_linear_7252_940" x1="992.098" y1="271.173" x2="1074.94" y2="481.394" gradientUnits="userSpaceOnUse">
<stop stop-color="white"/>
<stop offset="1" stop-color="white" stop-opacity="0.18"/>
</linearGradient>
<linearGradient id="paint3_linear_7252_940" x1="319.909" y1="455.164" x2="284.964" y2="338.92" gradientUnits="userSpaceOnUse">
<stop stop-color="#222E3A"/>
<stop offset="1" stop-color="#222E3A" stop-opacity="0"/>
</linearGradient>
<linearGradient id="paint4_linear_7252_940" x1="316.912" y1="288.626" x2="293.363" y2="555.144" gradientUnits="userSpaceOnUse">
<stop stop-color="#8F9DB4"/>
<stop offset="1" stop-color="#8F9DB4" stop-opacity="0"/>
</linearGradient>
<linearGradient id="paint5_linear_7252_940" x1="316.912" y1="288.626" x2="293.363" y2="555.144" gradientUnits="userSpaceOnUse">
<stop stop-color="#8F9DB4"/>
<stop offset="1" stop-color="#8F9DB4" stop-opacity="0"/>
</linearGradient>
<linearGradient id="paint6_linear_7252_940" x1="172.997" y1="418.954" x2="423.397" y2="418.954" gradientUnits="userSpaceOnUse">
<stop stop-color="#C7CEDA"/>
<stop offset="0.0205411" stop-color="#E8EBF0"/>
<stop offset="0.4958" stop-color="#E8EBF0"/>
<stop offset="0.9788" stop-color="#E8EBF0"/>
<stop offset="1" stop-color="#C7CEDA"/>
</linearGradient>
</defs>
</svg>
